<?xml version="1.0" encoding="UTF-8"?>
<svg id="Layer_2" xmlns="http://www.w3.org/2000/svg" viewBox="0 0 778.13 581.19">
  <defs>
    <style>
      .cls-1 {
        fill: #00a2ff;
      }

      .cls-2 {
        fill: #ea4335;
      }

      .cls-3, .cls-4 {
        fill: #fff;
      }

      .cls-5 {
        fill: #fbbc04;
      }

      .cls-6 {
        fill: #4285f4;
      }

      .cls-7 {
        fill: #e5e5e5;
      }

      .cls-8 {
        fill: #34a853;
      }

      .cls-9 {
        fill: #6d1afe;
      }

      .cls-10 {
        fill: #21325e;
      }

      .cls-4 {
        opacity: .8;
      }

      .cls-11 {
        fill: #ddd;
      }

      .cls-12 {
        fill: #00a2ff;
      }

      .cls-13 {
        fill: #5f6368;
      }

      .cls-14 {
        fill: #d6d6d6;
      }

      .cls-15 {
        fill: #f8f8f8;
      }
    </style>
  </defs>
  <g id="Layer_1-2" data-name="Layer_1">
    <g>
      <g>
        <g>
          <path d="M90.75,177.28c0-4.27.84-8.5,2.48-12.45,1.64-3.95,4.03-7.53,7.05-10.55,3.02-3.02,6.61-5.42,10.55-7.05,3.95-1.63,8.18-2.48,12.45-2.48h558.52c4.27,0,8.5.84,12.45,2.48,3.95,1.64,7.53,4.03,10.55,7.05,3.02,3.02,5.42,6.61,7.05,10.55,1.63,3.95,2.48,8.18,2.48,12.45v357.86H90.75V177.28Z"/>
          <path class="cls-3" d="M714.83,535.64H90.25V177.28c0-4.36.85-8.61,2.51-12.64,1.67-4.03,4.08-7.63,7.16-10.72,3.08-3.08,6.69-5.49,10.72-7.16,4.03-1.67,8.28-2.51,12.64-2.51h558.52c4.36,0,8.61.85,12.64,2.51,4.03,1.67,7.64,4.08,10.72,7.16,3.08,3.08,5.49,6.69,7.16,10.72,1.67,4.03,2.51,8.28,2.51,12.64v358.36ZM91.25,534.64h622.58V177.28c0-4.23-.82-8.35-2.44-12.26-1.62-3.91-3.95-7.4-6.94-10.39-2.99-2.99-6.48-5.32-10.39-6.94-3.91-1.62-8.03-2.44-12.26-2.44H123.28c-4.23,0-8.35.82-12.26,2.44-3.9,1.62-7.4,3.95-10.39,6.95-2.99,2.99-5.33,6.49-6.95,10.39-1.62,3.91-2.44,8.03-2.44,12.26v357.36Z"/>
        </g>
        <g>
          <path class="cls-1" d="M30.07,562.68v-11.39l60.69-16.14h623l63.44,16.27v11.39"/>
          <path class="cls-3" d="M29.57,563.18v-12.27l61.19-16.26h623.07l64.3,16.26v12.27M777.13,562.18v-10.5l-63.43-16.04H90.83l-60.26,16.03v10.5"/>
        </g>
        <g>
          <path d="M777.63,551.41v16.27c0,1.71-.34,3.4-.99,4.98-.65,1.58-1.61,3.01-2.82,4.22-1.21,1.21-2.64,2.17-4.22,2.82-1.58.65-3.27.99-4.98.99H43.07c-1.71,0-3.4-.33-4.98-.99-1.58-.65-3.01-1.61-4.22-2.82-1.21-1.21-2.17-2.64-2.82-4.22-.65-1.58-.99-3.27-.99-4.98v-16.27"/>
          <path class="cls-3" d="M778.13,550.91v16.77c0,1.79-.35,3.53-1.03,5.17-.68,1.65-1.66,3.12-2.93,4.38-1.26,1.26-2.73,2.25-4.38,2.93-1.64.68-3.38,1.03-5.17,1.03H43.07c-1.78,0-3.52-.35-5.17-1.03-1.65-.68-3.12-1.67-4.38-2.93-1.26-1.26-2.25-2.74-2.93-4.38-.68-1.65-1.03-3.39-1.03-5.17v-16.77M30.57,551.91v15.77c0,1.65.32,3.26.95,4.79.63,1.53,1.54,2.89,2.71,4.06,1.17,1.17,2.53,2.08,4.05,2.71,1.52.63,3.13.95,4.78.95h721.56c1.65,0,3.26-.32,4.78-.95,1.52-.63,2.89-1.54,4.06-2.71,1.17-1.17,2.08-2.53,2.71-4.06.63-1.52.95-3.14.95-4.79v-15.77"/>
        </g>
        <path class="cls-15" d="M101.23,174.75c0-5.18,2.06-10.14,5.72-13.8,3.66-3.66,8.63-5.72,13.8-5.72h563.58c5.18,0,10.14,2.06,13.8,5.72,3.66,3.66,5.72,8.63,5.72,13.8v352.53H101.23V174.75Z"/>
        <path class="cls-7" d="M634.44,248.32H170.64v157.76h463.8v-157.76Z"/>
        <path class="cls-7" d="M388.78,421.33h-218.72v105.53h218.72v-105.53Z"/>
        <path class="cls-7" d="M635.03,421.33h-218.72v105.53h218.72v-105.53Z"/>
        <path class="cls-1" d="M101.23,173.19c0-5.18,2.06-10.14,5.72-13.8,3.66-3.66,8.63-5.72,13.8-5.72h563.58c2.56,0,5.1.51,7.47,1.49,2.37.98,4.52,2.42,6.33,4.23,1.81,1.81,3.25,3.96,4.23,6.33s1.48,4.91,1.48,7.47v8.88H101.23v-8.88Z"/>
        <g>
          <path class="cls-3" d="M115.43,163.14c.62,0,1.24.12,1.81.36.57.24,1.1.59,1.54,1.02.44.44.79.96,1.02,1.54.24.57.36,1.19.36,1.81s-.12,1.24-.36,1.81c-.24.57-.59,1.1-1.02,1.54-.44.44-.96.79-1.54,1.03-.57.24-1.19.36-1.81.36s-1.24-.12-1.81-.36c-.57-.24-1.1-.59-1.54-1.03-.44-.44-.79-.96-1.03-1.54-.24-.57-.36-1.19-.36-1.81s.12-1.24.36-1.81c.24-.57.59-1.1,1.03-1.54.44-.44.96-.79,1.54-1.02.57-.24,1.19-.36,1.81-.36Z"/>
          <path d="M115.43,173.1c-.69,0-1.36-.13-2-.4-.64-.27-1.21-.65-1.7-1.13-.49-.48-.87-1.06-1.13-1.7-.26-.64-.4-1.31-.4-2s.13-1.36.4-2c.27-.64.65-1.21,1.13-1.7.49-.49,1.06-.87,1.7-1.13,1.28-.53,2.73-.53,4,0,.64.26,1.21.64,1.7,1.13.49.49.87,1.06,1.13,1.7.27.64.4,1.31.4,2s-.13,1.36-.4,2c-.26.64-.64,1.21-1.13,1.7-.48.49-1.06.87-1.7,1.13-.64.26-1.31.4-2,.4ZM115.43,163.64c-.56,0-1.1.11-1.62.32-.52.21-.98.52-1.37.92-.39.39-.7.85-.92,1.37-.21.52-.32,1.06-.32,1.62s.11,1.1.32,1.62c.22.52.52.98.92,1.37.39.39.85.7,1.37.92,1.04.43,2.21.43,3.24,0,.52-.22.98-.52,1.37-.92.4-.4.7-.86.92-1.37.21-.52.32-1.06.32-1.62s-.11-1.1-.32-1.62c-.21-.52-.52-.98-.92-1.38-.39-.39-.86-.7-1.37-.92-.52-.21-1.06-.32-1.62-.32Z"/>
        </g>
        <g>
          <path class="cls-3" d="M131.2,163.14c.62,0,1.24.12,1.81.36.57.24,1.1.59,1.54,1.02.44.44.79.96,1.03,1.54.24.57.36,1.19.36,1.81s-.12,1.24-.36,1.81c-.24.57-.59,1.1-1.03,1.54-.44.44-.96.79-1.54,1.03-.57.24-1.19.36-1.81.36s-1.24-.12-1.81-.36c-.57-.24-1.1-.59-1.54-1.03-.44-.44-.79-.96-1.02-1.54-.24-.57-.36-1.19-.36-1.81s.12-1.24.36-1.81c.24-.57.59-1.1,1.02-1.54.44-.44.96-.79,1.54-1.02.57-.24,1.19-.36,1.81-.36Z"/>
          <path d="M131.2,173.1c-.69,0-1.36-.13-2-.4-.64-.27-1.21-.65-1.7-1.13-.49-.49-.87-1.06-1.13-1.7-.26-.64-.4-1.31-.4-2s.13-1.37.4-2c.26-.64.64-1.21,1.13-1.7.49-.49,1.06-.87,1.7-1.13,1.27-.53,2.73-.53,4,0,.64.26,1.21.64,1.7,1.13.49.48.87,1.06,1.13,1.7.26.64.4,1.31.4,2s-.13,1.36-.4,2c-.27.64-.65,1.21-1.14,1.7-.48.49-1.06.87-1.7,1.13-.64.26-1.31.4-2,.4ZM131.2,163.64c-.56,0-1.1.11-1.62.32-.52.21-.98.52-1.37.92-.4.4-.7.86-.92,1.37-.22.52-.32,1.06-.32,1.62s.11,1.1.32,1.62c.21.52.52.98.92,1.37.39.39.85.7,1.37.92,1.03.43,2.2.43,3.24,0,.52-.21.98-.52,1.37-.92.39-.39.7-.86.92-1.38.21-.51.32-1.06.32-1.62s-.11-1.11-.32-1.62c-.22-.52-.52-.98-.92-1.37-.4-.39-.86-.7-1.37-.92-.52-.21-1.06-.32-1.62-.32Z"/>
        </g>
        <g>
          <path class="cls-3" d="M146.99,163.14c.62,0,1.24.12,1.81.36.57.24,1.1.59,1.54,1.02.44.44.79.96,1.02,1.54.24.57.36,1.19.36,1.81s-.12,1.24-.36,1.81c-.24.57-.59,1.1-1.02,1.54-.44.44-.96.79-1.54,1.03-.57.24-1.19.36-1.81.36s-1.24-.12-1.81-.36c-.57-.24-1.1-.59-1.54-1.03-.44-.44-.79-.96-1.02-1.54-.24-.57-.36-1.19-.36-1.81s.12-1.24.36-1.81c.24-.57.59-1.1,1.02-1.54.44-.44.96-.79,1.54-1.02.57-.24,1.19-.36,1.81-.36Z"/>
          <path d="M146.99,173.1c-.69,0-1.36-.13-2-.4-.64-.27-1.21-.65-1.7-1.13-.49-.49-.87-1.06-1.13-1.7-.26-.64-.4-1.32-.4-2s.13-1.36.4-2c.27-.64.65-1.21,1.13-1.7.49-.49,1.06-.87,1.7-1.13,1.28-.53,2.73-.53,4,0,.64.26,1.21.64,1.7,1.13.49.49.87,1.06,1.13,1.7.26.64.4,1.31.4,2s-.13,1.36-.4,2c-.26.64-.64,1.21-1.13,1.7-.49.49-1.06.87-1.7,1.13-.64.26-1.31.4-2,.4ZM146.99,163.64c-.56,0-1.1.11-1.62.32-.52.21-.98.52-1.38.92-.39.39-.7.85-.92,1.37-.21.52-.32,1.06-.32,1.62s.11,1.1.32,1.62c.21.52.52.98.92,1.37.39.39.86.7,1.37.92,1.03.43,2.2.43,3.24,0,.52-.22.98-.52,1.37-.92.4-.4.7-.86.92-1.37.22-.52.32-1.06.32-1.62s-.11-1.1-.32-1.62c-.21-.52-.52-.98-.92-1.38-.4-.39-.86-.7-1.37-.92-.52-.21-1.06-.32-1.62-.32Z"/>
        </g>
        <path d="M703.85,236.33H101.23v3.25h602.62v-3.25Z"/>
      </g>
      <g>
        <path class="cls-1" d="M170.64,194.59h29.03v14.51c0,8.01-6.5,14.51-14.51,14.51h0c-8.01,0-14.51-6.5-14.51-14.51v-14.51h0Z"/>
        <path class="cls-1" d="M633.15,212.87c-1.18-1.19-2.8-1.86-4.47-1.86h-55.31c-1.67,0-3.29.67-4.47,1.86-1.18,1.19-1.86,2.8-1.86,4.48s.67,3.29,1.86,4.48c1.18,1.19,2.8,1.86,4.47,1.86h55.31c1.67,0,3.29-.67,4.47-1.86,1.18-1.19,1.85-2.8,1.85-4.48s-.66-3.29-1.85-4.48Z"/>
        <path class="cls-1" d="M549.4,212.87c-1.18-1.19-2.8-1.86-4.47-1.86h-55.31c-1.67,0-3.29.67-4.47,1.86-1.18,1.19-1.86,2.8-1.86,4.48s.67,3.29,1.86,4.48c1.18,1.19,2.8,1.86,4.47,1.86h55.31c1.67,0,3.29-.67,4.47-1.86,1.18-1.19,1.85-2.8,1.85-4.48s-.66-3.29-1.85-4.48Z"/>
        <path class="cls-1" d="M465.63,212.87c-1.18-1.19-2.8-1.86-4.47-1.86h-55.31c-1.67,0-3.29.67-4.47,1.86s-1.86,2.8-1.86,4.48.67,3.29,1.86,4.48,2.8,1.86,4.47,1.86h55.31c1.67,0,3.29-.67,4.47-1.86s1.85-2.8,1.85-4.48-.66-3.29-1.85-4.48Z"/>
        <path class="cls-1" d="M381.87,212.87c-1.18-1.19-2.8-1.86-4.47-1.86h-55.31c-1.67,0-3.29.67-4.47,1.86s-1.86,2.8-1.86,4.48.67,3.29,1.86,4.48,2.8,1.86,4.47,1.86h55.31c1.67,0,3.29-.67,4.47-1.86,1.18-1.19,1.85-2.8,1.85-4.48s-.66-3.29-1.85-4.48Z"/>
        <path class="cls-1" d="M298.11,212.87c-1.18-1.19-2.8-1.86-4.47-1.86h-55.31c-1.67,0-3.29.67-4.47,1.86-1.18,1.19-1.86,2.8-1.86,4.48s.67,3.29,1.86,4.48c1.18,1.19,2.8,1.86,4.47,1.86h55.31c1.67,0,3.29-.67,4.47-1.86s1.85-2.8,1.85-4.48-.66-3.29-1.85-4.48Z"/>
      </g>
      <g>
        <g>
          <g>
            <path class="cls-3" d="M581.52,70.01H9.88c-3.89,0-7.04,2.56-7.04,5.72v304.54c0,3.16,3.15,5.72,7.04,5.72h571.64c3.89,0,7.04-2.56,7.04-5.72V75.74c0-3.16-3.15-5.72-7.04-5.72Z"/>
            <path class="cls-12" d="M583,388.43H8.41c-4.64,0-8.41-3.65-8.41-8.15V75.74c0-4.49,3.77-8.15,8.41-8.15h574.59c4.64,0,8.41,3.65,8.41,8.15v304.54c0,4.49-3.77,8.15-8.41,8.15ZM8.41,72.44c-1.88,0-3.41,1.48-3.41,3.3v304.54c0,1.82,1.53,3.3,3.41,3.3h574.59c1.88,0,3.41-1.48,3.41-3.3V75.74c0-1.82-1.53-3.3-3.41-3.3H8.41Z"/>
          </g>
          <g>
            <g>
              <path d="M364.25,136.76h1.11c-.03.6-.15,1.13-.37,1.56-.22.44-.53.77-.94,1.01-.41.23-.92.35-1.53.35-.44,0-.84-.09-1.19-.26-.35-.17-.66-.42-.91-.75-.25-.32-.44-.71-.58-1.17s-.2-.97-.2-1.54v-1.63c0-.56.07-1.07.2-1.53.13-.46.33-.85.59-1.17.26-.32.57-.57.94-.75.37-.17.79-.26,1.26-.26.57,0,1.06.11,1.45.34.4.23.7.56.92,1,.22.44.34.97.36,1.61h-1.11c-.03-.46-.1-.84-.22-1.13-.12-.29-.29-.51-.52-.65-.23-.14-.52-.21-.89-.21-.32,0-.6.06-.84.19-.24.13-.43.31-.58.55s-.26.53-.34.86c-.07.34-.11.71-.11,1.13v1.64c0,.39.03.75.09,1.08.06.33.16.63.3.88s.32.45.55.59c.23.14.5.21.82.21.41,0,.73-.07.97-.2.24-.13.41-.34.53-.64s.19-.67.23-1.14Z"/>
              <path d="M366.57,136.61v-.62c0-.51.06-.95.19-1.34.13-.39.31-.71.54-.96.23-.26.5-.45.8-.58.31-.13.64-.2.99-.2s.69.07,1,.2c.31.13.58.33.81.58.23.26.41.58.54.96.13.39.19.83.19,1.34v.62c0,.51-.06.95-.19,1.34s-.31.71-.54.96c-.23.26-.5.45-.8.58s-.64.19-.99.19-.69-.06-.99-.19c-.31-.13-.58-.32-.81-.58-.23-.26-.41-.58-.54-.96-.13-.39-.19-.83-.19-1.34ZM367.64,135.98v.62c0,.36.04.67.11.94s.18.5.31.68c.13.18.29.32.47.41.18.09.37.14.58.14.24,0,.45-.05.64-.14.18-.09.34-.23.46-.41.12-.18.21-.41.27-.68s.09-.58.09-.94v-.62c0-.36-.04-.67-.11-.94s-.18-.49-.31-.68c-.13-.18-.29-.32-.47-.41-.18-.09-.37-.14-.58-.14s-.4.05-.57.14c-.18.09-.33.23-.46.41-.13.18-.23.41-.31.68s-.11.58-.11.94Z"/>
              <path d="M372.75,136.61v-.62c0-.51.06-.95.19-1.34.13-.39.31-.71.54-.96.23-.26.5-.45.8-.58.31-.13.64-.2.99-.2s.69.07,1,.2c.31.13.58.33.81.58.23.26.41.58.54.96.13.39.19.83.19,1.34v.62c0,.51-.06.95-.19,1.34s-.31.71-.54.96c-.23.26-.5.45-.8.58s-.64.19-.99.19-.69-.06-.99-.19c-.31-.13-.58-.32-.81-.58-.23-.26-.41-.58-.54-.96-.13-.39-.19-.83-.19-1.34ZM373.82,135.98v.62c0,.36.04.67.11.94s.18.5.31.68c.13.18.29.32.47.41.18.09.37.14.58.14.24,0,.45-.05.64-.14.18-.09.34-.23.46-.41.12-.18.21-.41.27-.68s.09-.58.09-.94v-.62c0-.36-.04-.67-.11-.94s-.18-.49-.31-.68c-.13-.18-.29-.32-.47-.41-.18-.09-.37-.14-.58-.14s-.4.05-.57.14c-.18.09-.33.23-.46.41-.13.18-.23.41-.31.68s-.11.58-.11.94Z"/>
              <path d="M380.22,130.27v9.29h-1.07v-9.29h1.07ZM383.54,133.02l-2.33,3.05-1.44,1.66-.07-1.19.99-1.37,1.56-2.15h1.29ZM382.56,139.56l-1.84-3.12.55-1,2.53,4.12h-1.25Z"/>
              <path d="M384.79,131.28c0-.18.05-.33.15-.46.1-.12.25-.19.45-.19s.35.06.46.19.15.28.15.46-.05.32-.15.44-.26.18-.46.18-.35-.06-.45-.18c-.1-.12-.15-.27-.15-.44ZM385.92,133.02v6.54h-1.06v-6.54h1.06Z"/>
              <path d="M389.84,139.69c-.39,0-.74-.06-1.06-.18s-.58-.3-.8-.54c-.22-.24-.39-.54-.51-.91-.12-.37-.18-.8-.18-1.3v-.74c0-.58.07-1.06.2-1.46.14-.4.32-.72.55-.96.23-.24.49-.42.78-.53.29-.11.59-.17.9-.17.41,0,.76.07,1.05.2.29.13.53.33.71.59.18.26.32.58.4.97.09.38.13.82.13,1.32v.62h-4.09v-.91h3.02v-.15c-.02-.34-.06-.64-.14-.9-.07-.26-.2-.46-.37-.61-.17-.15-.41-.22-.72-.22-.2,0-.38.03-.55.1-.17.07-.31.18-.43.34s-.21.39-.28.67c-.07.29-.1.65-.1,1.09v.74c0,.35.03.65.1.9.07.25.17.46.3.62.13.16.29.28.48.36.19.08.41.12.66.12.36,0,.66-.07.89-.21.23-.14.44-.32.61-.54l.56.67c-.12.17-.27.32-.46.47-.19.15-.42.27-.69.37-.27.09-.6.14-.98.14Z"/>
              <path d="M393.3,130.27h1.07v8.02l-.09,1.27h-.98v-9.29ZM398.05,136v.61c0,.52-.05.97-.14,1.35-.09.39-.23.71-.42.96-.19.26-.41.45-.68.57-.27.13-.57.19-.91.19s-.63-.07-.88-.21c-.25-.14-.45-.33-.62-.59-.17-.26-.3-.57-.39-.94-.09-.37-.16-.78-.2-1.24v-.82c.04-.46.1-.88.19-1.25.09-.37.22-.68.39-.94.17-.26.37-.46.62-.6.25-.14.54-.21.88-.21s.65.06.92.18c.27.12.49.31.68.56.18.25.32.57.42.96.09.39.14.85.14,1.39ZM396.98,136.61v-.61c0-.36-.02-.68-.07-.95-.05-.27-.12-.49-.23-.67-.1-.18-.24-.31-.42-.4-.18-.09-.39-.13-.65-.13-.22,0-.41.04-.57.13-.16.09-.3.21-.42.36-.12.15-.21.32-.29.51-.08.19-.13.39-.17.6v1.72c.05.26.14.51.25.75.11.24.27.44.47.59s.44.23.74.23c.25,0,.45-.04.63-.13.17-.08.31-.21.42-.39s.19-.4.24-.67c.05-.27.08-.58.08-.95Z"/>
              <path d="M399.18,136.61v-.62c0-.51.06-.95.19-1.34.13-.39.31-.71.54-.96.23-.26.5-.45.8-.58.31-.13.64-.2.99-.2s.69.07,1,.2c.31.13.58.33.81.58.23.26.41.58.54.96.13.39.19.83.19,1.34v.62c0,.51-.06.95-.19,1.34s-.31.71-.54.96c-.23.26-.5.45-.8.58s-.64.19-.99.19-.69-.06-.99-.19c-.31-.13-.58-.32-.81-.58-.23-.26-.41-.58-.54-.96-.13-.39-.19-.83-.19-1.34ZM400.25,135.98v.62c0,.36.04.67.11.94s.18.5.31.68c.13.18.29.32.47.41.18.09.37.14.58.14.24,0,.45-.05.64-.14.18-.09.34-.23.46-.41.12-.18.21-.41.27-.68s.09-.58.09-.94v-.62c0-.36-.04-.67-.11-.94s-.18-.49-.31-.68c-.13-.18-.29-.32-.47-.41-.18-.09-.37-.14-.58-.14s-.4.05-.57.14c-.18.09-.33.23-.46.41-.13.18-.23.41-.31.68s-.11.58-.11.94Z"/>
              <path d="M407.99,133.02v.86h-3.05v-.86h3.05ZM405.93,131.43h1.07v6.51c0,.22.03.39.08.5.05.11.12.19.21.22.08.04.18.05.27.05.07,0,.15,0,.24-.03.09-.02.15-.03.18-.05v.91c-.08.03-.18.06-.3.08s-.27.04-.46.04c-.23,0-.44-.05-.64-.16-.2-.11-.36-.29-.48-.55-.12-.26-.18-.6-.18-1.04v-6.51Z"/>
              <path d="M416.66,136.76h1.11c-.03.6-.15,1.13-.37,1.56-.22.44-.53.77-.94,1.01-.41.23-.92.35-1.53.35-.44,0-.84-.09-1.19-.26-.35-.17-.66-.42-.91-.75-.25-.32-.44-.71-.58-1.17s-.2-.97-.2-1.54v-1.63c0-.56.07-1.07.2-1.53.13-.46.33-.85.59-1.17.26-.32.57-.57.94-.75.37-.17.79-.26,1.26-.26.57,0,1.06.11,1.45.34.4.23.7.56.92,1,.22.44.34.97.36,1.61h-1.11c-.03-.46-.1-.84-.22-1.13-.12-.29-.29-.51-.52-.65-.23-.14-.52-.21-.89-.21-.32,0-.6.06-.84.19-.24.13-.43.31-.58.55s-.26.53-.34.86c-.07.34-.11.71-.11,1.13v1.64c0,.39.03.75.09,1.08.06.33.16.63.3.88s.32.45.55.59c.23.14.5.21.82.21.41,0,.73-.07.97-.2.24-.13.41-.34.53-.64s.19-.67.23-1.14Z"/>
              <path d="M418.98,136.61v-.62c0-.51.06-.95.19-1.34.13-.39.31-.71.54-.96.23-.26.5-.45.8-.58.31-.13.64-.2.99-.2s.69.07,1,.2c.31.13.58.33.81.58.23.26.41.58.54.96.13.39.19.83.19,1.34v.62c0,.51-.06.95-.19,1.34s-.31.71-.54.96c-.23.26-.5.45-.8.58s-.64.19-.99.19-.69-.06-.99-.19c-.31-.13-.58-.32-.81-.58-.23-.26-.41-.58-.54-.96-.13-.39-.19-.83-.19-1.34ZM420.05,135.98v.62c0,.36.04.67.11.94s.18.5.31.68c.13.18.29.32.47.41.18.09.37.14.58.14.24,0,.45-.05.64-.14.18-.09.34-.23.46-.41.12-.18.21-.41.27-.68s.09-.58.09-.94v-.62c0-.36-.04-.67-.11-.94s-.18-.49-.31-.68c-.13-.18-.29-.32-.47-.41-.18-.09-.37-.14-.58-.14s-.4.05-.57.14c-.18.09-.33.23-.46.41-.13.18-.23.41-.31.68s-.11.58-.11.94Z"/>
              <path d="M426.44,134.42v5.15h-1.07v-6.54h1.01l.06,1.4ZM426.18,136.04l-.44-.02c0-.45.05-.86.15-1.24.11-.38.26-.71.46-.99.2-.28.44-.5.72-.66s.59-.23.93-.23c.27,0,.51.04.73.13.22.09.4.22.56.41.15.19.27.43.35.73.08.3.12.67.12,1.1v4.29h-1.07v-4.3c0-.34-.04-.62-.11-.83-.07-.21-.19-.36-.34-.45-.15-.09-.34-.14-.57-.14-.21,0-.41.06-.59.18-.18.12-.34.28-.47.48-.14.21-.24.44-.31.7-.07.26-.11.54-.11.84Z"/>
              <path d="M434.39,137.89c0-.17-.04-.31-.12-.44-.08-.12-.21-.25-.4-.36-.18-.12-.43-.24-.74-.37-.3-.12-.57-.25-.81-.37-.24-.12-.44-.26-.61-.4-.17-.15-.29-.31-.38-.5-.09-.19-.13-.42-.13-.68s.05-.5.15-.73c.1-.22.24-.42.42-.59.18-.17.4-.3.65-.4s.54-.14.85-.14c.45,0,.83.09,1.14.26.31.17.56.41.72.71.17.3.25.64.25,1.01h-1.06c0-.18-.04-.35-.12-.51-.08-.16-.2-.29-.36-.4-.16-.1-.35-.15-.57-.15-.24,0-.43.04-.58.13-.15.08-.26.19-.32.33-.07.14-.1.28-.1.44,0,.12.02.22.05.31.03.09.09.17.18.24.08.07.2.15.35.23.15.08.34.17.57.27.44.17.82.35,1.12.53.3.18.53.39.69.62.16.24.24.53.24.88,0,.29-.05.55-.15.78-.1.23-.25.43-.44.6s-.42.29-.68.38c-.26.09-.56.13-.89.13-.49,0-.91-.1-1.25-.29-.34-.2-.6-.45-.77-.77-.18-.32-.26-.66-.26-1.02h1.07c.01.31.08.54.21.71.13.17.28.29.46.35.18.06.36.1.54.1.24,0,.44-.04.6-.11.16-.07.28-.17.37-.31.08-.13.12-.29.12-.47Z"/>
              <path d="M439.12,139.69c-.39,0-.74-.06-1.06-.18s-.58-.3-.8-.54c-.22-.24-.39-.54-.51-.91-.12-.37-.18-.8-.18-1.3v-.74c0-.58.07-1.06.2-1.46.14-.4.32-.72.55-.96.23-.24.49-.42.78-.53.29-.11.59-.17.9-.17.41,0,.76.07,1.05.2.29.13.53.33.71.59.18.26.32.58.4.97.09.38.13.82.13,1.32v.62h-4.09v-.91h3.02v-.15c-.02-.34-.06-.64-.14-.9-.07-.26-.2-.46-.37-.61-.17-.15-.41-.22-.72-.22-.2,0-.38.03-.55.1-.17.07-.31.18-.43.34s-.21.39-.28.67c-.07.29-.1.65-.1,1.09v.74c0,.35.03.65.1.9.07.25.17.46.3.62.13.16.29.28.48.36.19.08.41.12.66.12.36,0,.66-.07.89-.21.23-.14.44-.32.61-.54l.56.67c-.12.17-.27.32-.46.47-.19.15-.42.27-.69.37-.27.09-.6.14-.98.14Z"/>
              <path d="M443.66,134.42v5.15h-1.07v-6.54h1.01l.06,1.4ZM443.4,136.04l-.44-.02c0-.45.05-.86.15-1.24.11-.38.26-.71.46-.99.2-.28.44-.5.72-.66s.59-.23.93-.23c.27,0,.51.04.73.13.22.09.4.22.56.41.15.19.27.43.35.73.08.3.12.67.12,1.1v4.29h-1.07v-4.3c0-.34-.04-.62-.11-.83-.07-.21-.19-.36-.34-.45-.15-.09-.34-.14-.57-.14-.21,0-.41.06-.59.18-.18.12-.34.28-.47.48-.14.21-.24.44-.31.7-.07.26-.11.54-.11.84Z"/>
              <path d="M450.98,133.02v.86h-3.05v-.86h3.05ZM448.92,131.43h1.07v6.51c0,.22.03.39.08.5.05.11.12.19.21.22.08.04.18.05.27.05.07,0,.15,0,.24-.03.09-.02.15-.03.18-.05v.91c-.08.03-.18.06-.3.08s-.27.04-.46.04c-.23,0-.44-.05-.64-.16-.2-.11-.36-.29-.48-.55-.12-.26-.18-.6-.18-1.04v-6.51Z"/>
              <path d="M455.24,130.76h.94l.16,5.37v3.44h-1.11v-8.81ZM455.59,130.76h1.08l2.3,7.18,2.3-7.18h1.08l-2.96,8.81h-.85l-2.95-8.81ZM461.75,130.76h.94v8.81h-1.11v-3.44l.16-5.37Z"/>
              <path d="M467.7,135.6v.79s-.73,0-.73,0c-.25,0-.48.03-.69.08-.21.06-.39.14-.54.24-.15.11-.26.24-.34.4-.08.16-.12.34-.12.54,0,.26.04.47.11.63.07.16.18.27.33.34.15.07.33.1.55.1.27,0,.51-.06.71-.19.21-.12.37-.28.48-.45.11-.18.17-.34.16-.5l.24.5c-.02.16-.07.33-.15.51-.09.18-.21.36-.36.53s-.33.3-.54.41c-.21.11-.44.16-.7.16-.38,0-.71-.07-.99-.22-.28-.15-.5-.36-.66-.64-.16-.28-.24-.63-.24-1.05,0-.31.05-.6.16-.87s.27-.5.48-.69c.21-.2.48-.35.81-.46.32-.11.7-.16,1.13-.16h.91ZM467.53,138.45v-3.55c0-.26-.04-.47-.12-.62s-.2-.27-.35-.34c-.16-.07-.35-.11-.58-.11s-.42.05-.58.14c-.16.09-.29.22-.38.37-.09.15-.13.32-.13.51h-1.07c0-.23.05-.47.15-.7.1-.23.25-.44.44-.63.19-.19.43-.34.7-.45.27-.11.58-.17.92-.17.4,0,.76.07,1.07.2.31.13.55.34.73.64.18.29.27.69.27,1.17v3.23c0,.22.02.45.05.7.03.25.08.46.15.64v.1h-1.11c-.05-.13-.09-.3-.12-.52-.03-.22-.04-.42-.04-.6Z"/>
              <path d="M471.24,134.42v5.15h-1.07v-6.54h1.01l.06,1.4ZM470.98,136.04l-.44-.02c0-.45.05-.86.15-1.24.11-.38.26-.71.46-.99.2-.28.44-.5.72-.66s.59-.23.93-.23c.27,0,.51.04.73.13.22.09.4.22.56.41.15.19.27.43.35.73.08.3.12.67.12,1.1v4.29h-1.07v-4.3c0-.34-.04-.62-.11-.83-.07-.21-.19-.36-.34-.45-.15-.09-.34-.14-.57-.14-.21,0-.41.06-.59.18-.18.12-.34.28-.47.48-.14.21-.24.44-.31.7-.07.26-.11.54-.11.84Z"/>
              <path d="M479.39,135.6v.79s-.73,0-.73,0c-.25,0-.48.03-.69.08-.21.06-.39.14-.54.24-.15.11-.26.24-.34.4-.08.16-.12.34-.12.54,0,.26.04.47.11.63.07.16.18.27.33.34.15.07.33.1.55.1.27,0,.51-.06.71-.19.21-.12.37-.28.48-.45.11-.18.17-.34.16-.5l.24.5c-.02.16-.07.33-.15.51-.09.18-.21.36-.36.53s-.33.3-.54.41c-.21.11-.44.16-.7.16-.38,0-.71-.07-.99-.22-.28-.15-.5-.36-.66-.64-.16-.28-.24-.63-.24-1.05,0-.31.05-.6.16-.87s.27-.5.48-.69c.21-.2.48-.35.81-.46.32-.11.7-.16,1.13-.16h.91ZM479.22,138.45v-3.55c0-.26-.04-.47-.12-.62s-.2-.27-.35-.34c-.16-.07-.35-.11-.58-.11s-.42.05-.58.14c-.16.09-.29.22-.38.37-.09.15-.13.32-.13.51h-1.07c0-.23.05-.47.15-.7.1-.23.25-.44.44-.63.19-.19.43-.34.7-.45.27-.11.58-.17.92-.17.4,0,.76.07,1.07.2.31.13.55.34.73.64.18.29.27.69.27,1.17v3.23c0,.22.02.45.05.7.03.25.08.46.15.64v.1h-1.11c-.05-.13-.09-.3-.12-.52-.03-.22-.04-.42-.04-.6Z"/>
              <path d="M481.63,136.61v-.61c0-.54.05-1,.15-1.39.1-.39.25-.71.44-.96.19-.25.42-.44.69-.56.27-.12.57-.18.91-.18s.63.07.88.21c.25.14.45.34.61.6.16.26.29.57.39.94s.16.79.2,1.25v.82c-.04.46-.1.87-.2,1.24s-.23.68-.39.94c-.17.26-.37.46-.62.59-.25.14-.54.21-.88.21s-.63-.06-.9-.19c-.27-.13-.5-.32-.69-.57-.19-.26-.34-.58-.44-.96-.1-.39-.15-.84-.15-1.35ZM485.39,133.02h.96v6.6c0,.58-.1,1.05-.3,1.43-.2.38-.48.65-.83.83-.35.18-.76.27-1.23.27-.17,0-.37-.03-.62-.09-.25-.06-.5-.15-.75-.28-.25-.12-.46-.28-.62-.46l.44-.74c.23.23.47.4.73.5s.5.15.74.15c.28,0,.52-.05.73-.15s.36-.27.48-.49c.11-.23.17-.53.17-.91v-5.21l.1-1.44ZM482.7,136v.61c0,.36.03.68.08.95.05.27.13.49.25.67.11.18.25.31.43.39.18.08.39.13.63.13.3,0,.54-.07.73-.22.19-.15.34-.34.46-.58.11-.24.21-.5.28-.78v-1.72c-.04-.21-.1-.4-.17-.6-.07-.19-.17-.36-.29-.51-.12-.15-.26-.27-.42-.36-.16-.09-.35-.13-.57-.13-.25,0-.46.04-.64.13-.18.09-.32.22-.44.4-.11.18-.2.4-.25.67-.05.27-.08.59-.08.95Z"/>
              <path d="M490.25,139.69c-.39,0-.74-.06-1.06-.18s-.58-.3-.8-.54c-.22-.24-.39-.54-.51-.91-.12-.37-.18-.8-.18-1.3v-.74c0-.58.07-1.06.2-1.46.14-.4.32-.72.55-.96.23-.24.49-.42.78-.53.29-.11.59-.17.9-.17.41,0,.76.07,1.05.2.29.13.53.33.71.59.18.26.32.58.4.97.09.38.13.82.13,1.32v.62h-4.09v-.91h3.02v-.15c-.02-.34-.06-.64-.14-.9-.07-.26-.2-.46-.37-.61-.17-.15-.41-.22-.72-.22-.2,0-.38.03-.55.1-.17.07-.31.18-.43.34s-.21.39-.28.67c-.07.29-.1.65-.1,1.09v.74c0,.35.03.65.1.9.07.25.17.46.3.62.13.16.29.28.48.36.19.08.41.12.66.12.36,0,.66-.07.89-.21.23-.14.44-.32.61-.54l.56.67c-.12.17-.27.32-.46.47-.19.15-.42.27-.69.37-.27.09-.6.14-.98.14Z"/>
              <path d="M494.77,134.32v5.24h-1.06v-6.54h1l.06,1.3ZM494.56,136.04l-.5-.02c0-.45.04-.86.13-1.24.09-.38.23-.71.42-.99s.42-.5.71-.66.62-.23.99-.23c.25,0,.48.04.7.13.22.09.4.22.57.41.16.19.29.42.38.71.09.29.14.64.14,1.05v4.36h-1.07v-4.31c0-.34-.05-.62-.14-.82-.09-.21-.22-.36-.38-.45-.17-.09-.36-.14-.59-.14-.26,0-.48.06-.66.18-.18.12-.31.28-.42.48s-.18.44-.22.7c-.04.26-.06.54-.06.84ZM498.08,135.43l-.71.23c0-.36.04-.7.13-1.03s.23-.63.41-.88c.18-.26.41-.46.69-.61.27-.15.59-.23.96-.23.3,0,.56.05.79.14.23.09.42.23.58.43.16.19.28.44.36.73.08.3.12.65.12,1.06v4.3h-1.07v-4.31c0-.37-.05-.65-.14-.86-.09-.2-.22-.35-.38-.43-.17-.08-.36-.12-.59-.12-.19,0-.35.04-.49.13-.14.08-.26.2-.36.35-.1.15-.17.32-.22.51-.05.19-.08.39-.08.6Z"/>
              <path d="M505.3,139.69c-.39,0-.74-.06-1.06-.18s-.58-.3-.8-.54c-.22-.24-.39-.54-.51-.91-.12-.37-.18-.8-.18-1.3v-.74c0-.58.07-1.06.2-1.46.14-.4.32-.72.55-.96.23-.24.49-.42.78-.53.29-.11.59-.17.9-.17.41,0,.76.07,1.05.2.29.13.53.33.71.59.18.26.32.58.4.97.09.38.13.82.13,1.32v.62h-4.09v-.91h3.02v-.15c-.02-.34-.06-.64-.14-.9-.07-.26-.2-.46-.37-.61-.17-.15-.41-.22-.72-.22-.2,0-.38.03-.55.1-.17.07-.31.18-.43.34s-.21.39-.28.67c-.07.29-.1.65-.1,1.09v.74c0,.35.03.65.1.9.07.25.17.46.3.62.13.16.29.28.48.36.19.08.41.12.66.12.36,0,.66-.07.89-.21.23-.14.44-.32.61-.54l.56.67c-.12.17-.27.32-.46.47-.19.15-.42.27-.69.37-.27.09-.6.14-.98.14Z"/>
              <path d="M509.84,134.42v5.15h-1.07v-6.54h1.01l.06,1.4ZM509.58,136.04l-.44-.02c0-.45.05-.86.15-1.24.11-.38.26-.71.46-.99.2-.28.44-.5.72-.66s.59-.23.93-.23c.27,0,.51.04.73.13.22.09.4.22.56.41.15.19.27.43.35.73.08.3.12.67.12,1.1v4.29h-1.07v-4.3c0-.34-.04-.62-.11-.83-.07-.21-.19-.36-.34-.45-.15-.09-.34-.14-.57-.14-.21,0-.41.06-.59.18-.18.12-.34.28-.47.48-.14.21-.24.44-.31.7-.07.26-.11.54-.11.84Z"/>
              <path d="M517.16,133.02v.86h-3.05v-.86h3.05ZM515.1,131.43h1.07v6.51c0,.22.03.39.08.5.05.11.12.19.21.22.08.04.18.05.27.05.07,0,.15,0,.24-.03.09-.02.15-.03.18-.05v.91c-.08.03-.18.06-.3.08s-.27.04-.46.04c-.23,0-.44-.05-.64-.16-.2-.11-.36-.29-.48-.55-.12-.26-.18-.6-.18-1.04v-6.51Z"/>
              <path d="M524.23,136.11h-1.92v-.95h1.92c.36,0,.66-.07.88-.22.22-.15.39-.35.49-.6s.15-.55.15-.88c0-.3-.05-.59-.15-.85s-.27-.48-.49-.64c-.22-.16-.52-.24-.88-.24h-1.69v7.85h-1.11v-8.81h2.81c.57,0,1.05.11,1.44.34.39.23.69.55.89.95.2.41.31.87.31,1.39,0,.56-.1,1.05-.31,1.45-.2.4-.5.7-.89.91-.39.21-.87.31-1.44.31Z"/>
              <path d="M529.25,130.27v9.29h-1.06v-9.29h1.06Z"/>
              <path d="M534.14,135.6v.79s-.73,0-.73,0c-.25,0-.48.03-.69.08-.21.06-.39.14-.54.24-.15.11-.26.24-.34.4-.08.16-.12.34-.12.54,0,.26.04.47.11.63.07.16.18.27.33.34.15.07.33.1.55.1.27,0,.51-.06.71-.19.21-.12.37-.28.48-.45.11-.18.17-.34.16-.5l.24.5c-.02.16-.07.33-.15.51-.09.18-.21.36-.36.53s-.33.3-.54.41c-.21.11-.44.16-.7.16-.38,0-.71-.07-.99-.22-.28-.15-.5-.36-.66-.64-.16-.28-.24-.63-.24-1.05,0-.31.05-.6.16-.87s.27-.5.48-.69c.21-.2.48-.35.81-.46.32-.11.7-.16,1.13-.16h.91ZM533.97,138.45v-3.55c0-.26-.04-.47-.12-.62s-.2-.27-.35-.34c-.16-.07-.35-.11-.58-.11s-.42.05-.58.14c-.16.09-.29.22-.38.37-.09.15-.13.32-.13.51h-1.07c0-.23.05-.47.15-.7.1-.23.25-.44.44-.63.19-.19.43-.34.7-.45.27-.11.58-.17.92-.17.4,0,.76.07,1.07.2.31.13.55.34.73.64.18.29.27.69.27,1.17v3.23c0,.22.02.45.05.7.03.25.08.46.15.64v.1h-1.11c-.05-.13-.09-.3-.12-.52-.03-.22-.04-.42-.04-.6Z"/>
              <path d="M539.08,133.02v.86h-3.05v-.86h3.05ZM537.02,131.43h1.07v6.51c0,.22.03.39.08.5.05.11.12.19.21.22.08.04.18.05.27.05.07,0,.15,0,.24-.03.09-.02.15-.03.18-.05v.91c-.08.03-.18.06-.3.08s-.27.04-.46.04c-.23,0-.44-.05-.64-.16-.2-.11-.36-.29-.48-.55-.12-.26-.18-.6-.18-1.04v-6.51Z"/>
              <path d="M543.1,133.02v.86h-3.04v-.86h3.04ZM541.99,139.56h-1.07v-7.23c0-.47.08-.87.23-1.19.15-.32.37-.57.65-.74.28-.17.61-.25,1-.25.11,0,.22,0,.33.02.11.02.22.04.32.07l-.05.91c-.06-.02-.14-.03-.23-.04-.09,0-.18-.01-.26-.01-.19,0-.36.05-.5.14-.14.09-.24.23-.31.41-.07.18-.11.41-.11.67v7.23Z"/>
              <path d="M543.95,136.61v-.62c0-.51.06-.95.19-1.34.13-.39.31-.71.54-.96.23-.26.5-.45.8-.58.31-.13.64-.2.99-.2s.69.07,1,.2c.31.13.58.33.81.58.23.26.41.58.54.96.13.39.19.83.19,1.34v.62c0,.51-.06.95-.19,1.34s-.31.71-.54.96c-.23.26-.5.45-.8.58s-.64.19-.99.19-.69-.06-.99-.19c-.31-.13-.58-.32-.81-.58-.23-.26-.41-.58-.54-.96-.13-.39-.19-.83-.19-1.34ZM545.02,135.98v.62c0,.36.04.67.11.94s.18.5.31.68c.13.18.29.32.47.41.18.09.37.14.58.14.24,0,.45-.05.64-.14.18-.09.34-.23.46-.41.12-.18.21-.41.27-.68s.09-.58.09-.94v-.62c0-.36-.04-.67-.11-.94s-.18-.49-.31-.68c-.13-.18-.29-.32-.47-.41-.18-.09-.37-.14-.58-.14s-.4.05-.57.14c-.18.09-.33.23-.46.41-.13.18-.23.41-.31.68s-.11.58-.11.94Z"/>
              <path d="M551.41,134.05v5.52h-1.07v-6.54h1.03l.04,1.03ZM553.04,132.98v1.04c-.08-.02-.16-.03-.23-.04-.07,0-.15,0-.24,0-.2,0-.38.04-.53.12s-.28.19-.39.34-.2.32-.26.52c-.06.2-.11.42-.13.66l-.28.18c0-.4.03-.77.09-1.11.06-.35.16-.65.29-.92.13-.27.3-.48.51-.63.21-.15.46-.23.75-.23.06,0,.14,0,.24.03s.16.04.18.06Z"/>
              <path d="M555.2,134.32v5.24h-1.06v-6.54h1l.06,1.3ZM554.98,136.04l-.5-.02c0-.45.04-.86.13-1.24.09-.38.23-.71.42-.99s.42-.5.71-.66.62-.23.99-.23c.25,0,.48.04.7.13.22.09.4.22.57.41.16.19.29.42.38.71.09.29.14.64.14,1.05v4.36h-1.07v-4.31c0-.34-.05-.62-.14-.82-.09-.21-.22-.36-.38-.45-.17-.09-.36-.14-.59-.14-.26,0-.48.06-.66.18-.18.12-.31.28-.42.48s-.18.44-.22.7c-.04.26-.06.54-.06.84ZM558.5,135.43l-.71.23c0-.36.04-.7.13-1.03s.23-.63.41-.88c.18-.26.41-.46.69-.61.27-.15.59-.23.96-.23.3,0,.56.05.79.14.23.09.42.23.58.43.16.19.28.44.36.73.08.3.12.65.12,1.06v4.3h-1.07v-4.31c0-.37-.05-.65-.14-.86-.09-.2-.22-.35-.38-.43-.17-.08-.36-.12-.59-.12-.19,0-.35.04-.49.13-.14.08-.26.2-.36.35-.1.15-.17.32-.22.51-.05.19-.08.39-.08.6Z"/>
            </g>
            <g id="Design">
              <path d="M396.12,97.13v20.25c0,1.55.47,2.38,1.64,2.38,1.23,0,1.61-.94,1.61-2.38v-20.25h5.18v19.91c0,4.71-2.16,7.04-6.87,7.04s-6.71-2.25-6.71-7.08v-19.87h5.15Z"/>
              <path d="M411.75,115.52v1.84c0,1.75.43,2.56,1.6,2.56s1.45-1.2,1.45-2.46c0-2.51-.47-3.24-3.19-5.51-2.99-2.54-4.53-4.04-4.53-7.96s1.26-7.3,6.29-7.3c5.35,0,6.14,3.65,6.14,6.69v1.53h-4.83v-1.59c0-1.61-.26-2.41-1.28-2.41-.94,0-1.25.81-1.25,2.32,0,1.6.29,2.39,2.49,4.11,3.91,3.07,5.31,4.8,5.31,9.18s-1.42,7.59-6.7,7.59-6.52-3.06-6.52-7v-1.59h5.01,0Z"/>
              <path d="M432.8,111.97h-5.48v7.25h6.43l-.61,4.5h-10.93v-26.59h10.89v4.52h-5.77v5.83h5.48v4.5h0Z"/>
              <path d="M440.68,112.16v11.56h-5.11v-26.59h6.63c4.46,0,6.66,1.96,6.66,6.61v.96c0,3.79-1.51,4.92-2.65,5.45,1.65.8,2.43,2.01,2.43,5.72,0,2.57-.04,6.45.18,7.85h-4.95c-.33-1.2-.31-4.66-.31-8.06,0-2.99-.34-3.5-2.29-3.5h-.6ZM440.69,108.13h.63c1.71,0,2.41-.54,2.41-3.01v-1.28c0-1.78-.36-2.67-2.24-2.67h-.8v6.97Z"/>
              <path d="M464.34,115.04v1.44c0,3.35-.62,7.64-6.71,7.64-4.5,0-6.46-2.4-6.46-7.29v-13.04c0-4.62,2.31-7.06,6.57-7.06,5.61,0,6.53,3.7,6.53,7.18v1.67h-5.15v-2.27c0-1.46-.31-2.2-1.38-2.2s-1.39.7-1.39,2.2v14.06c0,1.42.24,2.39,1.39,2.39s1.43-.81,1.43-2.51v-2.21h5.17Z"/>
              <path d="M477.14,111.97h-5.48v7.25h6.43l-.61,4.5h-10.93v-26.59h10.89v4.52h-5.77v5.83h5.48v4.5h0Z"/>
              <path d="M479.91,123.72v-26.59h5.66c.84,3.24,3.51,15.29,3.72,16.45h.12c-.28-3.54-.46-8.37-.46-12.09v-4.37h4.75v26.59h-5.71c-.55-2.53-3.46-16.29-3.63-17.14h-.14c.2,3.13.36,8.42.36,12.6v4.54h-4.66Z"/>
              <path d="M499.34,101.65h-3.87v-4.52h12.87v4.52h-3.9v22.06h-5.11v-22.06h0Z"/>
              <path d="M515.26,112.16v11.56h-5.11v-26.59h6.63c4.46,0,6.66,1.96,6.66,6.61v.96c0,3.79-1.51,4.92-2.65,5.45,1.65.8,2.43,2.01,2.43,5.72,0,2.57-.04,6.45.18,7.85h-4.95c-.33-1.2-.31-4.66-.31-8.06,0-2.99-.34-3.5-2.29-3.5h-.6,0ZM515.27,108.13h.63c1.71,0,2.41-.54,2.41-3.01v-1.28c0-1.78-.36-2.67-2.24-2.67h-.8v6.97h0Z"/>
              <path d="M531.33,97.13v26.59h-5.11v-26.59h5.11Z"/>
              <path d="M547.29,115.04v1.44c0,3.35-.62,7.64-6.71,7.64-4.5,0-6.46-2.4-6.46-7.29v-13.04c0-4.62,2.31-7.06,6.57-7.06,5.61,0,6.53,3.7,6.53,7.18v1.67h-5.15v-2.27c0-1.46-.31-2.2-1.38-2.2s-1.39.7-1.39,2.2v14.06c0,1.42.24,2.39,1.39,2.39s1.43-.81,1.43-2.51v-2.21h5.17Z"/>
              <path d="M554.02,115.52v1.84c0,1.75.43,2.56,1.6,2.56s1.45-1.2,1.45-2.46c0-2.51-.47-3.24-3.19-5.51-2.99-2.54-4.53-4.04-4.53-7.96s1.26-7.3,6.29-7.3c5.35,0,6.14,3.65,6.14,6.69v1.53h-4.83v-1.59c0-1.61-.26-2.41-1.28-2.41-.94,0-1.25.81-1.25,2.32,0,1.6.29,2.39,2.49,4.11,3.91,3.07,5.31,4.8,5.31,9.18s-1.42,7.59-6.7,7.59-6.52-3.06-6.52-7v-1.59h5.01,0Z"/>
              <path d="M358.89,97.12v13.47c0,7.43,6.04,13.47,13.47,13.47s13.47-6.04,13.47-13.47v-13.47h-26.94ZM381.88,110.59c0,5.25-4.27,9.52-9.52,9.52s-9.52-4.27-9.52-9.52v-9.52h19.04v9.52h0Z"/>
              <polygon points="369.61 115.44 369.63 115.44 369.63 115.44 374.19 115.44 374.18 115.42 379.42 104.37 374.86 104.37 371.69 111.05 370.18 108.39 365.62 108.39 369.62 115.42 369.61 115.44"/>
            </g>
          </g>
          <rect class="cls-11" x="29.16" y="188.62" width="533.08" height="11.26" rx="3" ry="3"/>
          <rect class="cls-11" x="29.16" y="208.94" width="387.38" height="11.26" rx="3" ry="3"/>
          <g>
            <path d="M31.71,154.49h3.79c1.16,0,2.05.28,2.67.83s.94,1.35.94,2.39-.31,1.83-.93,2.39-1.51.85-2.68.85h-1.7v3.49h-2.1v-9.95ZM35.31,159.39c.64,0,1.09-.15,1.33-.44s.37-.71.37-1.23-.12-.92-.37-1.21c-.25-.29-.69-.43-1.33-.43h-1.5v3.32h1.5Z"/>
            <path d="M40.33,157.24h1.93l.05.79h.03c.14-.27.34-.5.59-.69.26-.19.54-.29.86-.29.09,0,.19.01.28.03s.17.04.21.06v1.76c-.08-.02-.17-.03-.26-.04-.09-.01-.19-.02-.3-.02-.31,0-.59.09-.83.28-.25.18-.43.42-.54.7v4.64h-2.04v-7.21Z"/>
            <path d="M45.57,154.46c.21-.21.5-.31.89-.31s.68.1.88.31.31.47.31.78-.1.57-.31.78-.5.31-.89.31-.68-.1-.88-.31-.31-.47-.31-.78.1-.57.31-.78ZM45.43,157.24h2.04v7.21h-2.04v-7.21Z"/>
            <path d="M50.34,157.24l1.48,4.23c.06.17.1.33.13.47s.05.28.07.41h.04c.02-.13.04-.27.08-.41.03-.14.08-.3.13-.47l1.48-4.23h1.83l-2.73,7.21h-1.83l-2.73-7.21h2.06Z"/>
            <path d="M56.84,160.51c.62-.4,1.4-.6,2.34-.61h1.39v-.4c0-.32-.08-.58-.25-.78s-.46-.3-.88-.3-.72.08-.9.25-.26.37-.26.61v.1h-2v-.1c0-.65.3-1.19.91-1.61.6-.42,1.38-.63,2.34-.63s1.71.2,2.26.6c.54.4.82,1.03.82,1.87v3.33c0,.29.03.57.08.83s.13.49.21.67v.11h-2c-.05-.1-.1-.24-.15-.41-.04-.17-.07-.34-.09-.5-.14.27-.4.51-.8.72-.4.21-.89.32-1.48.32-.7,0-1.29-.19-1.77-.56s-.72-.94-.72-1.7c0-.81.31-1.41.93-1.81ZM58.22,162.91c.18.2.47.29.88.29.43,0,.78-.14,1.06-.41.28-.27.42-.6.42-.97v-.68h-1.11c-.52,0-.9.09-1.15.26s-.37.42-.37.75.09.57.27.77Z"/>
            <path d="M64.04,160.73c0-1.14.33-2.04,1-2.71s1.56-1,2.66-1,1.85.26,2.4.79.84,1.14.88,1.86v.12s-1.97,0-1.97,0v-.09c0-.33-.11-.61-.33-.83s-.55-.33-.99-.33c-.52,0-.91.19-1.18.56-.26.38-.4.88-.4,1.51v.45c0,.63.13,1.14.38,1.52s.65.57,1.18.57c.49,0,.83-.12,1.03-.36.2-.24.29-.51.29-.82v-.08h1.98v.08c0,.72-.28,1.34-.85,1.88-.57.54-1.38.8-2.43.8-1.1,0-1.99-.33-2.66-1s-1-1.57-1-2.71v-.22Z"/>
            <path d="M72,165.79c.11.04.24.06.38.09.14.02.27.03.4.03.31,0,.58-.1.81-.29.23-.19.43-.59.59-1.2h-.08l-2.8-7.18h2.06l1.46,4.19c.06.17.1.33.14.47.03.14.06.29.1.45h.04c.03-.16.06-.3.1-.45.03-.14.08-.3.13-.47l1.41-4.19h1.83l-2.96,8.07c-.26.7-.61,1.23-1.05,1.59s-.99.54-1.63.54c-.21,0-.38,0-.53-.03-.15-.02-.29-.06-.42-.11l.02-1.5Z"/>
            <path d="M82.99,154.49h2.11v9.95h-2.11v-9.95Z"/>
            <path d="M87.01,157.24h1.93l.05.81h.03c.19-.28.46-.51.83-.69.37-.18.77-.27,1.21-.27.74,0,1.35.21,1.81.63.47.42.7,1.16.7,2.22v4.51h-2.03v-4.57c0-.45-.1-.77-.29-.95-.19-.18-.47-.27-.82-.27-.29,0-.56.08-.82.25-.25.17-.45.4-.58.7v4.84h-2.03v-7.21Z"/>
            <path d="M94.56,157.24h4.28v1.48h-4.28v-1.48ZM95.52,156.65c0-.94.26-1.64.79-2.11.52-.47,1.19-.7,1.99-.7.18,0,.35,0,.51.03s.31.05.43.08l-.06,1.49c-.09-.02-.18-.03-.28-.05s-.2-.02-.31-.02c-.33,0-.58.11-.77.33-.18.22-.27.55-.27,1v7.75h-2.03v-7.79Z"/>
            <path d="M99.28,160.73c0-1.13.34-2.04,1.03-2.7.69-.67,1.58-1,2.68-1s2,.33,2.68,1c.69.67,1.03,1.57,1.03,2.7v.22c0,1.13-.34,2.04-1.03,2.7-.69.67-1.58,1-2.68,1s-1.99-.33-2.68-1c-.69-.67-1.03-1.57-1.03-2.7v-.22ZM101.35,161.06c0,.67.14,1.18.43,1.52s.69.52,1.21.52.92-.17,1.2-.52.42-.85.42-1.52v-.45c0-.67-.14-1.18-.43-1.52s-.69-.52-1.2-.52-.91.17-1.2.52-.43.85-.43,1.52v.45Z"/>
            <path d="M108.09,157.24h1.93l.05.79h.03c.14-.27.34-.5.59-.69.26-.19.54-.29.86-.29.09,0,.19.01.28.03s.17.04.21.06v1.76c-.08-.02-.17-.03-.26-.04-.09-.01-.19-.02-.3-.02-.31,0-.59.09-.83.28-.25.18-.43.42-.54.7v4.64h-2.04v-7.21Z"/>
            <path d="M113.17,157.24h1.93l.04.82h.04c.21-.31.5-.55.86-.71.36-.17.74-.25,1.15-.25.5,0,.94.11,1.31.32.37.21.64.52.82.93h.03c.24-.41.57-.72,1-.93.42-.21.87-.32,1.33-.32.72,0,1.31.23,1.75.68s.67,1.21.67,2.28v4.4h-2.04v-4.52c0-.43-.09-.75-.27-.96-.18-.21-.44-.31-.79-.31-.31,0-.57.08-.8.25-.23.17-.41.41-.54.71v4.83h-2.04v-4.5c0-.44-.09-.77-.27-.98s-.45-.31-.81-.31c-.31,0-.57.08-.79.25s-.4.4-.53.71v4.83h-2.03v-7.21Z"/>
            <path d="M126.37,160.51c.62-.4,1.4-.6,2.34-.61h1.39v-.4c0-.32-.08-.58-.25-.78s-.46-.3-.88-.3-.72.08-.9.25-.26.37-.26.61v.1h-2v-.1c0-.65.3-1.19.91-1.61.6-.42,1.38-.63,2.34-.63s1.71.2,2.26.6c.54.4.82,1.03.82,1.87v3.33c0,.29.03.57.08.83s.13.49.21.67v.11h-2c-.05-.1-.1-.24-.15-.41-.04-.17-.07-.34-.09-.5-.14.27-.4.51-.8.72-.4.21-.89.32-1.48.32-.7,0-1.29-.19-1.77-.56s-.72-.94-.72-1.7c0-.81.31-1.41.93-1.81ZM127.75,162.91c.18.2.47.29.88.29.43,0,.78-.14,1.06-.41.28-.27.42-.6.42-.97v-.68h-1.11c-.52,0-.9.09-1.15.26s-.37.42-.37.75.09.57.27.77Z"/>
            <path d="M133.07,157.24h4.44v1.48h-4.44v-1.48ZM134.14,158.01v-.2s0-2.27,0-2.27h2.02v6.72c0,.32.06.55.18.67.12.12.29.19.51.19.1,0,.21-.01.31-.04s.21-.06.31-.1v1.46c-.1.05-.25.1-.45.14s-.4.06-.63.06c-.68,0-1.22-.19-1.64-.57s-.62-.97-.62-1.78v-4.29Z"/>
            <path d="M138.83,154.46c.21-.21.5-.31.89-.31s.68.1.88.31.31.47.31.78-.1.57-.31.78-.5.31-.89.31-.68-.1-.88-.31-.31-.47-.31-.78.1-.57.31-.78ZM138.69,157.24h2.04v7.21h-2.04v-7.21Z"/>
            <path d="M142.14,160.73c0-1.13.34-2.04,1.03-2.7.69-.67,1.58-1,2.68-1s2,.33,2.68,1c.69.67,1.03,1.57,1.03,2.7v.22c0,1.13-.34,2.04-1.03,2.7-.69.67-1.58,1-2.68,1s-1.99-.33-2.68-1c-.69-.67-1.03-1.57-1.03-2.7v-.22ZM144.22,161.06c0,.67.14,1.18.43,1.52s.69.52,1.21.52.92-.17,1.2-.52.42-.85.42-1.52v-.45c0-.67-.14-1.18-.43-1.52s-.69-.52-1.2-.52-.91.17-1.2.52-.43.85-.43,1.52v.45Z"/>
            <path d="M150.96,157.24h1.93l.05.81h.03c.19-.28.46-.51.83-.69.37-.18.77-.27,1.21-.27.74,0,1.35.21,1.81.63.47.42.7,1.16.7,2.22v4.51h-2.03v-4.57c0-.45-.1-.77-.29-.95-.19-.18-.47-.27-.82-.27-.29,0-.56.08-.82.25-.25.17-.45.4-.58.7v4.84h-2.03v-7.21Z"/>
          </g>
          <g>
            <g>
              <path class="cls-1" d="M33.16,320.9h160c2.21,0,4,1.73,4,3.86v30.9c0,2.13-1.79,3.86-4,3.86H33.16c-2.21,0-4-1.73-4-3.86v-30.9c0-2.13,1.79-3.86,4-3.86Z"/>
              <path class="cls-3" d="M113.16,330.7l-1.68,1.68,6.63,6.64h-14.46v2.38h14.46l-6.63,6.64,1.68,1.68,9.51-9.51-9.51-9.51Z"/>
            </g>
            <g>
              <path class="cls-1" d="M217.16,320.9h160c2.21,0,4,1.73,4,3.86v30.9c0,2.13-1.79,3.86-4,3.86h-160c-2.21,0-4-1.73-4-3.86v-30.9c0-2.13,1.79-3.86,4-3.86Z"/>
              <path class="cls-3" d="M305.4,333.63l-1.66-1.66-6.58,6.58-6.58-6.58-1.66,1.66,6.58,6.58-6.58,6.58,1.66,1.66,6.58-6.58,6.58,6.58,1.66-1.66-6.58-6.58,6.58-6.58Z"/>
            </g>
            <g>
              <path class="cls-1" d="M398.24,320.9h160c2.21,0,4,1.73,4,3.86v30.9c0,2.13-1.79,3.86-4,3.86h-160c-2.21,0-4-1.73-4-3.86v-30.9c0-2.13,1.79-3.86,4-3.86Z"/>
              <path class="cls-3" d="M474.24,345.04l-5.2-5.2-1.77,1.76,6.97,6.97,14.96-14.96-1.76-1.76-13.2,13.19Z"/>
            </g>
          </g>
        </g>
        <g>
          <rect class="cls-11" x="6.23" y="243.37" width="580.17" height=".81"/>
          <path class="cls-1" d="M70.39,260.29h16.12c6.23,0,11.28,5.05,11.28,11.28h0c0,6.23-5.05,11.28-11.28,11.28h-16.12c-6.23,0-11.28-5.05-11.28-11.28h0c0-6.23,5.05-11.28,11.28-11.28Z"/>
          <circle class="cls-3" cx="86.51" cy="271.57" r="8.06"/>
          <rect x="150.67" y="244.18" width=".81" height="54.79"/>
          <rect class="cls-14" x="150.67" y="244.18" width=".81" height="54.79"/>
          <path class="cls-1" d="M215.64,260.29h16.12c6.23,0,11.28,5.05,11.28,11.28h0c0,6.23-5.05,11.28-11.28,11.28h-16.12c-6.23,0-11.28-5.05-11.28-11.28h0c0-6.23,5.05-11.28,11.28-11.28Z"/>
          <circle class="cls-3" cx="231.75" cy="271.57" r="8.06"/>
          <rect x="295.92" y="244.18" width=".81" height="54.79"/>
          <rect class="cls-14" x="295.92" y="244.18" width=".81" height="54.79"/>
          <path d="M360.88,260.29h16.12c6.23,0,11.28,5.05,11.28,11.28h0c0,6.23-5.05,11.28-11.28,11.28h-16.12c-6.23,0-11.28-5.05-11.28-11.28h0c0-6.23,5.05-11.28,11.28-11.28Z"/>
          <circle class="cls-3" cx="360.88" cy="271.57" r="8.06"/>
          <rect x="441.16" y="244.18" width=".81" height="54.79"/>
          <rect class="cls-11" x="441.16" y="244.18" width=".81" height="54.79"/>
          <path d="M506.13,260.29h16.12c6.23,0,11.28,5.05,11.28,11.28h0c0,6.23-5.05,11.28-11.28,11.28h-16.12c-6.23,0-11.28-5.05-11.28-11.28h0c0-6.23,5.05-11.28,11.28-11.28Z"/>
          <circle class="cls-3" cx="506.13" cy="271.57" r="8.06"/>
          <rect class="cls-14" x="6.23" y="298.97" width="580.17" height=".81"/>
        </g>
      </g>
      <g>
        <g>
          <rect x="672.85" y="468.43" width="6.27" height="67.83"/>
          <path d="M703.45,537.57h-54.94v-2.95c0-.63.51-1.13,1.13-1.13h52.58c.67,0,1.22.55,1.22,1.22v2.86Z"/>
          <rect x="640.43" y="452.27" width="73.41" height="20.82" rx="7.17" ry="7.17"/>
        </g>
        <g>
          <g>
            <path class="cls-3" d="M641.05,524.24s-17.91,12.91-14.8,21.58c0,0,19.6-8.46,21.96-15.12,2.37-6.66-.4-9.6-.4-9.6l-6.76,3.13Z"/>
            <path d="M625.78,545.99c-3.2-8.92,14.24-21.62,14.98-22.16l7.17-3.33.25.26c.12.13,2.95,3.24.51,10.11-2.41,6.79-21.43,15.06-22.24,15.41l-.49.21-.18-.5ZM641.3,524.67c-.89.65-16.77,12.43-14.74,20.46,3.09-1.38,19.12-8.81,21.18-14.6,1.83-5.14.47-7.96-.09-8.81l-6.35,2.94Z"/>
          </g>
          <g>
            <path class="cls-1" d="M643.74,513.42l2.93,8.47c.44,1.28,0,2.73-1.14,3.45-.57.36-1.35.7-2.42.94-1.51.34-3.07-.35-3.79-1.72l-3.5-6.6,7.93-4.54Z"/>
            <path d="M638.87,524.79l-3.73-7.02,8.88-5.08,3.13,9.04c.52,1.52-.04,3.21-1.35,4.04-.69.43-1.55.77-2.58,1-.29.07-.58.1-.87.1-1.43,0-2.78-.78-3.47-2.07ZM636.48,518.16l3.28,6.17c.61,1.16,1.95,1.76,3.24,1.47.91-.21,1.68-.5,2.27-.87.92-.58,1.31-1.79.94-2.87l-2.73-7.9-6.99,4Z"/>
          </g>
          <g>
            <path class="cls-7" d="M672.24,437.21s-36.79,6.38-52.57,20.95c-15.78,14.58,14.48,61.08,14.48,61.08,0,0,4.96-.03,10.97-5.18,0,0-17.95-34.97-2.48-45.17,17.39-11.47,37.42-14.05,37.42-14.05l-7.47-16.51-.36-1.12Z"/>
            <path d="M633.74,519.52c-1.25-1.91-30.31-47.02-14.41-61.72,15.71-14.51,52.45-21.02,52.82-21.08l.43-.08.47,1.49,7.75,17.12-.67.09c-.2.03-20.13,2.7-37.21,13.97-14.92,9.84,2.47,44.18,2.65,44.53l.18.35-.3.26c-6.08,5.21-11.08,5.3-11.29,5.3h-.27s-.15-.23-.15-.23ZM642.37,468.48c15.51-10.23,33.34-13.46,36.97-14.03l-7.22-15.96-.22-.7c-4.16.77-37.31,7.29-51.89,20.75-14.71,13.59,12.08,56.54,14.41,60.2,1.07-.1,5.21-.73,10.08-4.79-1.96-3.93-17.13-35.57-2.13-45.46Z"/>
          </g>
          <g>
            <path class="cls-3" d="M622.9,546.6c1.38-2.1,3.83-4.35,6.46-5.57,3.94-1.82,15.09-9.63,16.97-9.97,1.88-.34,5.14,1.86,5.14,1.86,0,0,.79,1.43-.06,3.91-.57,1.68-1.9,3.85-4.72,6.39-7.01,6.3-20.39,8.57-23.23,8.13-2.28-.35-2.07-2.46-.56-4.75Z"/>
            <path d="M646.76,531.02c1.91,0,4.71,1.9,4.71,1.9,0,0,.79,1.43-.06,3.91-.57,1.68-1.9,3.85-4.72,6.39-6.45,5.8-18.3,8.18-22.37,8.18-.35,0-.64-.02-.87-.05-2.28-.35-2.07-2.46-.56-4.75,1.38-2.1,3.83-4.35,6.46-5.57,3.94-1.82,15.09-9.63,16.97-9.97.14-.02.28-.04.43-.04M646.76,530.02c-.21,0-.42.02-.61.05-1.13.21-4.04,2.02-8.69,4.96-3.31,2.09-6.73,4.26-8.52,5.09-2.64,1.22-5.28,3.49-6.87,5.93-1.24,1.88-1.61,3.51-1.07,4.71.27.6.89,1.36,2.32,1.58.28.04.62.06,1.02.06,4.61,0,16.48-2.55,23.04-8.44,2.56-2.3,4.24-4.59,5-6.81.96-2.83.09-4.54-.02-4.72l-.12-.21-.2-.13c-.31-.21-3.12-2.07-5.27-2.07h0Z"/>
          </g>
          <g>
            <path class="cls-1" d="M654.81,527.41c-.04,1.09-2.26,4.81-3.56,6.9-.62.99-1.7,1.6-2.86,1.6-.74,0-1.59-.06-2.37-.28-1.16-.33-1.81-1.57-1.47-2.73l2.53-8.65,7.73,3.17Z"/>
            <path d="M645.89,536.1c-.68-.19-1.24-.65-1.59-1.27-.35-.64-.43-1.38-.23-2.08l2.69-9.18,8.57,3.51v.35c-.05.91-1.27,3.32-3.65,7.14-.71,1.15-1.94,1.83-3.29,1.84h-.03c-.94,0-1.77-.1-2.47-.3ZM647.41,524.91l-2.38,8.12c-.13.44-.08.91.14,1.32.22.39.57.67.99.79.62.18,1.38.28,2.23.27,1,0,1.91-.51,2.44-1.37,2.17-3.49,3.16-5.49,3.42-6.32l-6.84-2.8Z"/>
          </g>
          <g>
            <path class="cls-7" d="M707.65,426.17s8.17,21.85,0,28.49c-8.17,6.64-27.66,14.12-32.01,27.36-4.35,13.23-11.74,38.95-21.63,48.06,0,0-6.95-.67-9.55-3.44,0,0,5.63-38.39,9.35-48.24,3.22-8.53,7.96-20.84,17.04-27.73,2.6-1.97,2.15-5.09.94-8.12l-2.2-5.52,38.06-10.85Z"/>
            <path d="M653.96,530.57c-.29-.03-7.17-.72-9.86-3.6l-.17-.18.04-.24c.23-1.57,5.68-38.56,9.37-48.35,3.13-8.31,7.87-20.88,17.2-27.95,1.98-1.5,2.23-3.9.78-7.54l-2.4-6.03,39.04-11.13.16.43c.34.91,8.2,22.26-.15,29.05-2.37,1.93-5.72,3.95-9.26,6.08-8.71,5.25-19.55,11.78-22.59,21.04-.48,1.46-1,3.07-1.55,4.8-4.51,14.05-11.32,35.28-20.21,43.47l-.16.15-.22-.02ZM670.26,437.35l1.99,5.01c1.62,4.07,1.26,6.92-1.1,8.7-9.1,6.9-13.78,19.3-16.87,27.5-3.5,9.28-8.79,44.58-9.28,47.89,2.29,2.2,7.69,2.95,8.84,3.09,8.62-8.13,15.33-29.03,19.77-42.89.55-1.73,1.07-3.34,1.55-4.8,3.16-9.61,14.18-16.25,23.03-21.59,3.51-2.12,6.83-4.12,9.15-6,7.18-5.84,1.08-24.41,0-27.49l-37.08,10.57Z"/>
          </g>
          <path d="M622.44,409.05c13.7.83,9.43-21.06,9.18-21.93l20.79,14.69s-1.1,11.7-18.39,17.84c-4.37,1.55-8.37,1.62-11.9.86,1.51-4.39,1.2-8.34.32-11.46Z"/>
          <g>
            <path class="cls-1" d="M595.96,402.46c5.1-3.55,10.89,0,10.89,0,6.83,4.46,11.88,6.36,15.6,6.59.88,3.12,1.19,7.07-.32,11.46-7.65-1.64-13.12-7.18-15.49-10.02-.86-1.02-2.37-1.2-3.42-.37-1.06.84-2.1,1.99-1.91,3.2.37,2.39-2.4,3.14-2.61,2.28-.21-.87.95-5.99.95-5.99,0,0-5.54,5.57-7.7,7.71-2.16,2.14-4.88,0-4.88,0,0,0,3.78-11.3,8.89-14.85Z"/>
            <path d="M622.02,421c-7.69-1.65-13.18-7.09-15.77-10.18-.68-.82-1.9-.95-2.72-.3-.87.69-1.88,1.72-1.72,2.73.27,1.73-.89,2.92-2.11,3.16-.75.15-1.34-.13-1.48-.69-.15-.64.24-2.87.59-4.55-1.75,1.76-4.97,4.99-6.5,6.5-1.96,1.94-4.48.87-5.54.04l-.28-.22.11-.33c.16-.47,3.89-11.49,9.07-15.1h0c5.31-3.7,11.19-.17,11.45,0,6.24,4.08,11.4,6.27,15.36,6.51l.35.02.1.34c1.11,3.93,1,7.89-.32,11.76l-.14.42-.43-.09ZM606.58,402.89c-.05-.03-5.56-3.34-10.34-.02h0c-4.41,3.07-7.88,12.31-8.57,14.24.69.43,2.47,1.29,3.93-.16,2.16-2.14,7.69-7.7,7.69-7.7l1.22-1.23-.38,1.69c-.54,2.41-1.06,5.3-.99,5.7.08.05.5.05.94-.25.34-.23.88-.76.73-1.78-.18-1.19.52-2.43,2.09-3.67,1.26-1,3.07-.8,4.11.45,2.46,2.94,7.61,8.05,14.78,9.75,1.09-3.43,1.18-6.92.26-10.4-4.08-.35-9.28-2.59-15.47-6.63Z"/>
          </g>
          <path d="M686.32,353.32s-19.93-7.98-57.02,22.64c0,0-3.1,6.41.28,12.12,3.38,5.71,35.58,33.52,40.01,48.94,0,0,19.18,6.23,39.03-8.55,0,0-1.75-42.92-22.3-75.16Z"/>
          <g>
            <path class="cls-1" d="M635.57,350.3s.06.03.09.04c2.35.95,3.62-.37,4.26-1.61l-4.35,1.57Z"/>
            <path d="M635.51,350.82l-1.04-.65,6.49-2.34-.58,1.13c-.75,1.46-1.86,2.21-3.19,2.21-.53,0-1.09-.12-1.67-.35ZM637.5,350.14c.3-.04.57-.14.83-.3l-.83.3Z"/>
          </g>
          <path d="M701.75,404.26c2.31-9.42-21.12-30.43-21.12-30.43l5.69-20.51s50.6,33.69,37.71,60.78c-1.85,3.88-4.3,6.6-7.15,8.42-4.07-10.97-10.57-16-15.13-18.26Z"/>
          <path class="cls-3" d="M701.77,402.89c.25,0,.48-.17.54-.42,2.37-9.63-20.32-30.11-21.29-30.97-.23-.2-.58-.19-.78.04-.2.23-.18.58.04.78.23.21,23.16,20.89,20.95,29.88-.07.3.11.6.41.67.04.01.09.02.13.02Z"/>
          <g>
            <path class="cls-1" d="M666.26,403.45s27.78,10.79,34.57,2.67c.46-.55.76-1.18.93-1.86,4.56,2.26,11.05,7.29,15.13,18.26-14.61,9.34-39.59-5.19-46.35-9.48-1.11-.7-2.44-.95-3.73-.68-2.6.54-7.1,1.33-9.53.96-3.55-.55-8.65,11.98-14.41,8.11,0,0,4.93-21.77,23.39-17.98Z"/>
            <path d="M670.26,413.46c-1.01-.64-2.2-.86-3.36-.62-2.54.53-7.18,1.35-9.71.97-1.15-.18-2.84,1.72-4.48,3.55-2.81,3.14-6.31,7.06-10.13,4.49l-.28-.19.08-.33c.05-.22,5.25-22.19,23.98-18.36l.08.02c.27.11,27.52,10.57,34,2.82.4-.48.67-1.02.83-1.66l.15-.61.56.28c4.75,2.36,11.27,7.49,15.37,18.54l.14.38-.34.22c-3.53,2.25-7.63,3.15-11.93,3.15-13.7,0-29.42-9.12-34.95-12.63ZM702.05,404.97c-.2.54-.48,1.03-.85,1.47-6.87,8.22-33.47-1.89-35.09-2.51-16.69-3.4-21.95,14.44-22.68,17.27,3,1.69,5.94-1.6,8.54-4.5,1.98-2.22,3.69-4.13,5.37-3.87,2.37.37,6.88-.44,9.35-.96,1.42-.3,2.87-.03,4.1.75,7.08,4.49,31.15,18.37,45.46,9.69-3.84-10.08-9.74-14.98-14.21-17.34Z"/>
          </g>
          <g>
            <path class="cls-1" d="M625.79,331.79c.33,4.08.99,11.38,1.48,16.73.12-.06.25-.1.39-.13,2.07-.39,4.86.68,7.91,1.91.03.02.06.03.09.04,2.35.95,3.62-.37,4.26-1.61.29-.55.46-1.09.54-1.4.04-.17.06-.33.05-.5l-.3-13.21c-.01-.55-.27-1.08-.71-1.41-1.4-1.07-4.66-3.14-7.49-1.82-1.67.78-4.02,1.38-6.22,1.4Z"/>
            <path d="M635.51,350.82l-.12-.05c-3.18-1.28-5.76-2.23-7.62-1.89-.11.03-.2.05-.27.09l-.65.32-.07-.73c-.72-7.89-1.22-13.52-1.48-16.74l-.04-.54h.54c1.96-.02,4.27-.54,6.01-1.36,3.11-1.45,6.64.83,8,1.87.56.42.9,1.09.91,1.8l.3,13.19c.01.21,0,.41-.06.65-.08.3-.25.89-.58,1.5-.75,1.46-1.86,2.21-3.19,2.21-.53,0-1.09-.12-1.67-.35ZM632.23,330.84c-1.74.81-3.9,1.33-5.89,1.43.26,3.19.73,8.43,1.38,15.6,2.12-.33,4.79.65,8.13,2,1.6.65,2.82.18,3.63-1.38.29-.55.45-1.09.5-1.28.03-.14.04-.25.04-.37l-.3-13.21c0-.41-.2-.79-.51-1.02-.96-.73-3.08-2.14-5.21-2.14-.6,0-1.19.11-1.77.38Z"/>
          </g>
          <path class="cls-3" d="M645.61,347.19c.02-.18.03-.35.05-.53.19-1.82.39-3.36.59-4.21.6-2.6,4-3.82,5.46-4.23.1-.03.19-.06.28-.11-1.2-1.15-3.13-1.21-4.58-.13-1.49,1.11-1.75,6.91-1.79,8.69,0,.33,0,.52,0,.52Z"/>
          <g>
            <path class="cls-1" d="M643.61,360.1c.62-.29,1.03-.88,1.08-1.55.15-2.19.51-7.34.92-11.36,0,0,0-.19,0-.52.04-1.78.3-7.58,1.79-8.69,1.45-1.08,3.38-1.02,4.58.13.99.95,1.49,2.64.82,5.04-1,3.57-3.02,4.46-4.67,4.52l8.59,10.42c.97,1.18,1.19,2.83.51,4.2-1.36,2.78-4.59,6.82-11.76,6.26-2.13-.16-4.01-1.45-4.95-3.37l-1.6-3.31c1.61-.51,3.22-1.09,4.68-1.77Z"/>
            <path d="M645.45,369.05c-2.29-.17-4.34-1.57-5.36-3.65l-1.85-3.83.55-.17c1.83-.58,3.34-1.15,4.62-1.75.45-.21.76-.65.79-1.13.32-4.73.63-8.56.92-11.33,0,0,0-.2.01-.53.05-2.32.35-7.86,1.99-9.08,1.64-1.23,3.84-1.15,5.22.17.74.71,1.84,2.37.96,5.54-.91,3.24-2.64,4.42-4.19,4.77l8.01,9.72c1.11,1.35,1.33,3.21.57,4.74-1.24,2.53-4.26,6.59-10.9,6.59-.43,0-.88-.02-1.35-.05ZM647.71,338.38c-.99.73-1.51,4.7-1.59,8.3,0,.32,0,.5-.01.56-.29,2.81-.6,6.63-.92,11.35-.06.85-.59,1.6-1.37,1.97h0c-1.19.55-2.56,1.08-4.19,1.62l1.35,2.79c.86,1.76,2.6,2.95,4.54,3.09,6.64.5,9.8-2.97,11.27-5.98.59-1.18.41-2.62-.45-3.66l-9.23-11.2,1.01-.04c2.04-.07,3.46-1.47,4.21-4.16.55-1.98.31-3.59-.68-4.54-.53-.51-1.23-.76-1.95-.76-.68,0-1.38.22-1.98.67Z"/>
          </g>
          <g>
            <path class="cls-3" d="M619.91,328.57c.69,2.43,3.17,3.26,5.88,3.22,2.2-.02,4.55-.62,6.22-1.4,2.83-1.32,6.09.75,7.49,1.82.44.33.7.86.71,1.41l.3,13.21c0,.17,0,.33-.05.5-.08.31-.25.85-.54,1.4-.64,1.24-1.91,2.56-4.26,1.61-.03,0-.06-.02-.09-.04-3.05-1.23-5.84-2.3-7.91-1.91-.14.03-.27.07-.39.13-.72.3-1.18,1.05-1.1,1.86.22,2.36.81,7.67,2.03,12.21.24.92,1.16,1.49,2.1,1.32,1.92-.33,5.26-1,8.63-2.04,1.61-.51,3.22-1.09,4.68-1.77.62-.29,1.03-.88,1.08-1.55.15-2.19.51-7.34.92-11.36,0,0,0-.19,0-.52.04-1.78.3-7.58,1.79-8.69,1.45-1.08,3.38-1.02,4.58.13.35-.15.65-.43.83-.78.43-.81-.07-4.73-1.15-8.59,1.37.12,2.86.02,4.48-.4,9.97-2.56,5.75-13.57,2.6-19.24-3.14-5.67-11.21-5.42-16.59-2.65-3.9,2.01-3.03,7.98-2.13,11.9-5.06-1.07-10.97-1.8-13.24-1.67-6.6.4-8.12,7.5-6.88,11.89Z"/>
            <path d="M627.72,362.72c-1.2-4.46-1.8-9.62-2.04-12.29-.1-1.01.48-1.98,1.38-2.36.15-.07.31-.13.52-.17,2.14-.4,4.86.59,8.28,1.98,1.6.65,2.82.18,3.63-1.38.29-.55.45-1.09.5-1.28.03-.14.04-.25.04-.37l-.3-13.21c0-.41-.2-.79-.51-1.02-1.23-.94-4.36-2.98-6.97-1.76-1.9.89-4.3,1.43-6.42,1.45-3.43.09-5.7-1.22-6.37-3.58h0c-.74-2.62-.59-6.52,1.4-9.34,1.37-1.93,3.42-3.04,5.93-3.19,2.24-.13,7.76.54,12.61,1.52-.65-3-1.72-9.49,2.56-11.7,6-3.09,14.09-2.86,17.26,2.85,1.63,2.94,5.19,10.32,3.01,15.4-.98,2.27-2.97,3.81-5.92,4.57-1.33.34-2.65.49-3.94.46.89,3.41,1.46,7.27.93,8.28-.23.45-.62.81-1.08,1.01l-.3.13-.24-.23c-1.03-.99-2.68-1.02-3.94-.09-.99.73-1.51,4.7-1.59,8.3,0,.32,0,.5-.01.56-.29,2.81-.6,6.63-.92,11.35-.06.85-.59,1.6-1.37,1.97-1.32.61-2.87,1.2-4.74,1.79-3.57,1.1-6.98,1.76-8.69,2.05-.14.03-.28.04-.42.04-1.04,0-1.99-.7-2.26-1.72ZM652.05,337.5c.14-.11.25-.24.33-.4.29-.55-.04-4.1-1.19-8.22l-.19-.7.72.06c1.4.12,2.85,0,4.31-.39,2.63-.68,4.4-2.02,5.25-4,2.01-4.67-1.4-11.71-2.96-14.52-3.16-5.71-11.22-4.87-15.92-2.45-2.69,1.39-3.31,5.1-1.87,11.34l.18.76-.77-.16c-4.94-1.05-10.82-1.79-13.11-1.66-2.22.13-3.96,1.07-5.17,2.77-1.81,2.54-1.93,6.09-1.26,8.48.72,2.54,3.69,2.88,5.39,2.86,1.96-.02,4.27-.54,6.01-1.35,3.11-1.45,6.64.83,8,1.87.56.42.9,1.09.91,1.8l.3,13.19c.01.21,0,.41-.06.65-.08.3-.25.89-.58,1.5-1.05,2.04-2.79,2.69-4.86,1.86l-.12-.05c-3.18-1.28-5.76-2.23-7.62-1.89-.11.03-.2.05-.3.1-.52.22-.85.77-.79,1.35.25,2.65.84,7.74,2.02,12.13.17.66.84,1.08,1.53.95,1.36-.23,4.92-.9,8.56-2.02,1.83-.58,3.34-1.15,4.62-1.75.45-.21.76-.65.79-1.13.32-4.73.63-8.56.92-11.33,0,0,0-.2.01-.53.05-2.32.35-7.86,1.99-9.08.78-.58,1.69-.87,2.58-.87s1.68.27,2.36.79Z"/>
          </g>
          <g>
            <path class="cls-3" d="M640.03,318.35s5.59,2.3,8.45,5.07c2.52,2.44,3.19,5.32,3.19,5.32"/>
            <path d="M651.19,328.85l.97-.23c-.03-.12-.73-3.05-3.33-5.57-2.9-2.8-8.38-5.08-8.61-5.17l-.38.92c.05.02,5.54,2.3,8.29,4.96,2.38,2.3,3.04,5.05,3.05,5.08Z"/>
          </g>
        </g>
        <g>
          <path d="M652.02,424.72s-.09,0-.13,0l-58.3-.06c-1.44,0-2.61-1.17-2.61-2.61,0-1.44,1.18-2.63,2.61-2.61l58.3.06c1.44,0,2.61,1.17,2.61,2.61,0,1.4-1.1,2.54-2.48,2.6Z"/>
          <path d="M541.18,371.79h48.55c3.58,0,6.84,2.07,8.37,5.31l22.44,47.59h-60.33c-2.31,0-4.38-1.41-5.23-3.56l-17.4-44.04c-1.01-2.54.87-5.3,3.61-5.3Z"/>
          <path class="cls-12" d="M575.39,396.19c1.05,3.27.27,6.44-1.74,7.09-2.01.65-4.49-1.48-5.55-4.75-1.05-3.27-.27-6.44,1.74-7.09,2.01-.65,4.49,1.48,5.55,4.75Z"/>
        </g>
        <g>
          <g>
            <g>
              <path class="cls-1" d="M549.06,549.75c-.32,0-.65-.06-.97-.19-1.24-.52-1.82-1.91-1.28-3.12l51.38-115.63c.53-1.2,1.97-1.76,3.22-1.24,1.24.52,1.82,1.91,1.28,3.12l-51.38,115.63c-.4.9-1.3,1.44-2.25,1.44Z"/>
              <path d="M549.06,550.25c-.4,0-.79-.08-1.16-.23-.74-.31-1.3-.88-1.59-1.6-.28-.71-.27-1.48.04-2.18l51.38-115.63c.64-1.45,2.38-2.12,3.87-1.5.74.31,1.3.88,1.59,1.6.28.71.27,1.48-.04,2.18l-51.38,115.63c-.47,1.05-1.53,1.73-2.71,1.73ZM600.44,429.88c-.76,0-1.48.43-1.8,1.14l-51.38,115.63c-.2.45-.21.95-.03,1.4.19.47.56.85,1.05,1.05.98.4,2.16-.06,2.57-.98l51.38-115.63c.2-.45.21-.95.03-1.4-.19-.47-.56-.85-1.05-1.05-.25-.11-.52-.16-.77-.16Z"/>
            </g>
            <g>
              <path class="cls-1" d="M606.93,549.75c-.95,0-1.85-.54-2.25-1.44l-51.38-115.63c-.53-1.2.04-2.6,1.28-3.12,1.24-.52,2.68.04,3.22,1.24l51.38,115.63c.53,1.2-.04,2.6-1.28,3.12-.32.13-.64.19-.97.19Z"/>
              <path d="M606.93,550.25c-1.18,0-2.24-.68-2.71-1.73l-51.38-115.63c-.31-.7-.32-1.47-.04-2.18.29-.73.85-1.3,1.59-1.6,1.49-.62,3.22.05,3.87,1.5l51.38,115.63c.31.7.32,1.47.04,2.18-.29.73-.85,1.3-1.59,1.6-.37.15-.76.23-1.16.23ZM555.55,429.88c-.26,0-.52.05-.77.16-.49.2-.86.57-1.05,1.05-.18.46-.17.95.03,1.4l51.38,115.63c.41.93,1.59,1.39,2.57.98.48-.2.86-.57,1.04-1.05.18-.46.17-.95-.03-1.4l-51.38-115.63c-.32-.71-1.04-1.14-1.79-1.14Z"/>
            </g>
            <g>
              <path class="cls-1" d="M708.09,549.75c-.32,0-.65-.06-.97-.19-1.24-.52-1.82-1.91-1.28-3.12l51.38-115.63c.53-1.2,1.97-1.76,3.22-1.24,1.24.52,1.82,1.91,1.28,3.12l-51.38,115.63c-.4.9-1.3,1.44-2.25,1.44Z"/>
              <path d="M708.09,550.25c-.4,0-.79-.08-1.16-.23-.74-.31-1.3-.88-1.59-1.6-.28-.71-.27-1.48.04-2.18l51.38-115.63c.64-1.45,2.38-2.12,3.87-1.5.74.31,1.3.88,1.59,1.6.28.71.27,1.48-.04,2.18l-51.38,115.63c-.47,1.05-1.53,1.73-2.71,1.73ZM759.47,429.88c-.76,0-1.48.43-1.8,1.14l-51.38,115.63c-.2.45-.21.95-.03,1.4.19.47.56.85,1.05,1.05.98.4,2.16-.06,2.57-.98l51.38-115.63c.2-.45.21-.95.03-1.4-.19-.47-.56-.85-1.05-1.05-.25-.11-.52-.15-.77-.15Z"/>
            </g>
            <g>
              <path class="cls-1" d="M765.97,549.75c-.95,0-1.85-.54-2.25-1.44l-51.38-115.63c-.53-1.2.04-2.6,1.28-3.12,1.24-.52,2.68.04,3.22,1.24l51.38,115.63c.53,1.2-.04,2.6-1.28,3.12-.32.13-.64.19-.97.19Z"/>
              <path d="M765.97,550.25c-1.18,0-2.24-.68-2.71-1.73l-51.38-115.63c-.31-.7-.32-1.47-.04-2.18.29-.73.85-1.3,1.59-1.6,1.49-.62,3.22.05,3.87,1.5l51.38,115.63c.31.7.32,1.47.04,2.18-.29.73-.85,1.3-1.59,1.6-.37.15-.76.23-1.16.23ZM714.59,429.88c-.26,0-.52.05-.77.16-.49.2-.86.57-1.05,1.05-.18.46-.17.95.03,1.4l51.38,115.63c.41.93,1.59,1.39,2.57.98.48-.2.86-.57,1.04-1.05.18-.46.17-.95-.03-1.4l-51.38-115.63c-.32-.71-1.04-1.14-1.79-1.14Z"/>
            </g>
          </g>
          <g>
            <path class="cls-1" d="M772,427.24c.13-.76-.05-1.54-.49-2.14-.44-.6-1.09-.94-1.78-.94h-233.73c-.91,0-1.75.52-2.24,1.37-.49.86-.55,1.93-.17,2.85l2.53,6.14c.58,1.41,1.84,2.31,3.22,2.31h228.79c1.29,0,2.39-1.02,2.64-2.44l1.24-7.16Z"/>
            <path d="M536,424.17h233.73c.69,0,1.34.35,1.78.94.44.6.62,1.38.49,2.14l-1.24,7.16c-.24,1.41-1.35,2.44-2.64,2.44h-228.79c-1.38,0-2.64-.9-3.22-2.31l-2.53-6.14c-.38-.92-.31-2,.17-2.85.49-.86,1.33-1.37,2.24-1.37M536,423.17c-1.28,0-2.44.7-3.11,1.88-.64,1.13-.73,2.52-.23,3.73l2.53,6.14c.73,1.78,2.36,2.92,4.14,2.92h228.79c1.77,0,3.29-1.37,3.62-3.26l1.24-7.16c.18-1.03-.07-2.09-.67-2.9-.63-.86-1.57-1.35-2.59-1.35h-233.73Z"/>
          </g>
        </g>
      </g>
      <g>
        <g>
          <path class="cls-4" d="M336.12,30.42h0c1.21,1.74,1.92,3.76,2.07,5.85,2.5,37.68-8.64,61.47-22.42,78.59-13.78,17.12-35.94,24.66-43.21,24.66s-29.43-7.54-43.21-24.66c-13.77-17.11-24.92-40.91-22.42-78.59.14-2.09.85-4.11,2.06-5.85,1.21-1.74,2.88-3.13,4.83-4.03h0S267.35,1.62,267.35,1.62c0,0,0,0,0,0,1.63-.75,3.41-1.14,5.21-1.14s3.58.39,5.21,1.14c0,0,0,0,0,0l53.53,24.77c1.95.9,3.62,2.3,4.83,4.03Z"/>
          <path class="cls-1" d="M272.56,140.02c-6.95,0-29.36-7.15-43.6-24.84-17.5-21.74-24.66-46.83-22.53-78.93.15-2.18.89-4.29,2.15-6.1,1.26-1.81,3-3.26,5.03-4.2L267.14,1.17c3.37-1.55,7.47-1.55,10.84,0l53.53,24.77c2.03.94,3.77,2.39,5.03,4.2h0c1.26,1.81,2.01,3.92,2.15,6.1,2.13,32.11-5.03,57.19-22.53,78.93-14.24,17.7-36.66,24.84-43.6,24.84ZM272.56.98c-1.72,0-3.45.38-5,1.1l-53.53,24.77c-1.87.86-3.47,2.2-4.63,3.86-1.16,1.66-1.84,3.6-1.97,5.6-2.11,31.84,4.97,56.71,22.31,78.24,13.84,17.19,36.24,24.47,42.82,24.47s28.79-7.04,42.82-24.47c17.33-21.54,24.42-46.4,22.31-78.24-.13-2-.82-3.94-1.98-5.6h0c-1.16-1.66-2.76-3-4.63-3.87l-53.53-24.77c-1.55-.72-3.28-1.1-5-1.1Z"/>
          <path class="cls-3" d="M242.35,38.77l-16.67,2.78-1.54,12.64,5.24,27.75,15.75,25.3,27.77,16.65,16.05-8.33,20.37-20.04,11.42-26.83v-27.14h-14.5l-20.06-10.49-13.27-11.1-6.19,7.38-24.37,11.41Z"/>
          <path class="cls-2" d="M322.87,67.91c.23-1.25.44-2.5.63-3.71,0-.02,0-.05,0-.07,1.84-12.46,1-21.75.94-22.27l-.31-3.4h-3.4c-11.89,0-23.07-3.49-33.26-10.38-3.45-2.32-6.66-4.98-9.59-7.93-.92-.98-1.88-2.03-2.82-3.18l-2.5-3.18-.07.09.06,11.57c7.05,7.13,15.55,12.67,24.93,16.25,6.3,2.38,12.93,3.78,19.66,4.13.2,9.41-.9,18.79-3.27,27.9h7.73c.35-1.43.66-2.83.94-4.22,0-.04,0-.07.02-.1.02-.03.01-.08.02-.11.08-.38.15-.75.22-1.12.02-.1.04-.2.06-.31l.02.04Z"/>
          <path class="cls-6" d="M272.56,13.81v-.03l-2.59,3.28c-.94,1.1-1.85,2.12-2.74,3.05-2.93,2.95-6.14,5.61-9.59,7.94-10.2,6.88-21.39,10.38-33.26,10.38h-3.41l-.31,3.4c-.05.52-.88,9.82.94,22.28.27,1.72.55,3.48.92,5.31.31,1.49.63,2.93.96,4.31h7.74c-2.36-9.1-3.46-18.49-3.27-27.9,23.07-1.22,38.45-14.15,44.6-20.41v-11.65l.02.03Z"/>
          <path class="cls-8" d="M272.49,119.16c-20.52-6.55-34.21-21.16-40.72-43.45-.19-.65-.37-1.3-.54-1.94h-7.74c.38,1.6.83,3.28,1.37,5.03.5,1.63,1.02,3.17,1.56,4.61,7.36,20.21,21.12,34.47,40.19,41.66l.43.16.2.07c.63.23,1.27.46,1.94.68l.2.07.23.07c.98.31,1.95.63,2.88.89v-7.85h0Z"/>
          <path class="cls-5" d="M321.61,73.76h-7.73c-.17.64-.35,1.29-.54,1.95-6.51,22.32-20.29,36.92-40.85,43.44v7.85l1.1-.29h.04c.36-.1.79-.23,1.74-.55l.29-.1.5-.17c.39-.13.83-.29,1.33-.47.21-.07.41-.15.63-.22l.3-.11c19.62-7.37,33.63-22.19,40.85-43.29.33-.97.66-1.97.98-3.01.54-1.75.99-3.44,1.37-5.03h0Z"/>
          <path class="cls-13" d="M246.58,63.64c-.8-.46-1.46-1.12-1.9-1.93-.46-.84-.7-1.78-.7-2.73s.24-1.89.7-2.73c.45-.8,1.11-1.47,1.9-1.93.82-.47,1.75-.72,2.7-.7.72,0,1.44.14,2.1.44.63.29,1.19.72,1.65,1.25l-.87.85c-.35-.43-.78-.79-1.28-1.03-.5-.22-1.04-.33-1.59-.31-.72,0-1.42.17-2.04.52-.62.35-1.13.86-1.48,1.48-.36.68-.55,1.43-.55,2.2s.19,1.52.55,2.2c.35.62.86,1.13,1.48,1.48.62.35,1.33.53,2.04.52.61,0,1.21-.14,1.76-.4.55-.27,1.03-.65,1.4-1.13l.89.86c-.48.57-1.08,1.02-1.76,1.34-.79.36-1.66.53-2.53.5-.87-.04-1.72-.28-2.48-.7v-.02Z"/>
          <path class="cls-13" d="M256.06,63.85c-.55-.33-1-.81-1.3-1.38-.32-.61-.47-1.3-.46-1.98,0-.67.14-1.34.43-1.95.28-.58.71-1.07,1.25-1.42.55-.36,1.2-.54,1.86-.53.65-.02,1.29.15,1.85.48.52.32.94.78,1.21,1.33.29.6.43,1.27.42,1.93,0,.13-.01.25-.04.37h-5.76c0,.5.15.98.4,1.41.22.36.53.66.91.86.35.19.75.28,1.15.28.45,0,.89-.12,1.27-.35.38-.23.69-.57.89-.97l1.03.5c-.3.57-.74,1.06-1.28,1.41-.58.33-1.24.51-1.91.51s-1.33-.18-1.91-.51h-.01ZM260.03,59.69c-.02-.32-.11-.63-.26-.92-.17-.32-.41-.59-.72-.77-.37-.22-.8-.33-1.24-.31-.54-.01-1.06.19-1.45.55-.41.39-.68.9-.78,1.45h4.45Z"/>
          <path class="cls-13" d="M262.88,56.8h1.16v1.16h.06c.17-.43.47-.78.87-1,.41-.24.87-.36,1.34-.36.18,0,.35.01.53.04v1.25c-.22-.04-.44-.06-.66-.06-.28,0-.56.04-.82.15-.26.11-.49.27-.69.48-.4.44-.6,1.01-.58,1.6v4.06h-1.22v-7.31h0ZM270.28,64.09c-.23-.09-.44-.22-.63-.39-.19-.17-.33-.39-.43-.62-.1-.28-.15-.58-.14-.88v-4.29h-1.27v-1.11h1.27v-2.08h1.21v2.06h1.77v1.11h-1.77v3.99c-.02.31.06.63.23.89.1.11.22.19.36.25.14.05.28.08.43.07.28,0,.56-.09.8-.24v1.19c-.14.07-.28.11-.43.14-.19.03-.38.05-.57.04-.28,0-.56-.05-.82-.14h-.01Z"/>
          <path class="cls-13" d="M273.83,55.2c-.08-.08-.15-.18-.19-.29-.04-.11-.07-.22-.06-.34,0-.11.02-.23.06-.33.04-.1.11-.2.19-.28.17-.16.39-.25.62-.25s.45.09.62.25c.08.08.15.17.19.28.04.11.07.22.07.33,0,.12-.02.23-.06.34-.04.11-.11.21-.19.29-.08.08-.18.15-.29.2-.11.04-.22.07-.34.07s-.23-.02-.34-.07c-.11-.05-.2-.11-.29-.2h.01ZM273.85,56.8h1.2v7.3h-1.2v-7.3Z"/>
          <path class="cls-13" d="M277.96,57.91h-1.35v-1.11h1.35v-.79c-.01-.42.1-.84.31-1.2.2-.34.5-.61.85-.79.36-.19.76-.29,1.17-.28.36,0,.73.05,1.07.17v1.19c-.17-.07-.33-.12-.48-.17-.18-.05-.36-.07-.54-.07-.15,0-.3.03-.44.09-.14.06-.27.14-.37.25-.12.12-.21.27-.27.43-.06.16-.08.33-.07.51v.66h4.52v7.31h-1.2v-6.21h-3.32v6.21h-1.21v-6.21h0ZM282.48,55.27c-.08-.08-.15-.18-.19-.28-.04-.11-.07-.22-.07-.33s.02-.23.07-.33c.04-.11.11-.2.19-.28.12-.12.28-.2.45-.23.17-.03.34-.01.5.05.16.07.3.18.39.32.1.14.15.31.15.49,0,.12-.02.23-.06.34-.04.11-.11.2-.19.29-.08.08-.18.15-.29.19-.11.05-.22.07-.34.07s-.23-.02-.34-.07c-.11-.04-.2-.11-.29-.19v-.02Z"/>
          <path class="cls-13" d="M287.05,63.85c-.55-.33-1-.81-1.29-1.38-.32-.62-.47-1.3-.46-1.99,0-.67.14-1.34.43-1.95.28-.58.71-1.07,1.25-1.42.55-.36,1.2-.54,1.85-.53.65-.02,1.3.15,1.86.48.52.32.94.78,1.21,1.33.29.6.44,1.27.42,1.93,0,.13-.01.25-.04.37h-5.76c.01.49.15.98.4,1.4.22.36.53.66.91.86.35.19.75.29,1.15.29.44,0,.88-.12,1.26-.36.38-.23.68-.57.88-.97l1.03.5c-.3.57-.74,1.06-1.28,1.41-.58.33-1.24.51-1.91.51s-1.33-.18-1.91-.51v.02ZM291.03,59.69c-.03-.32-.11-.63-.26-.92-.17-.32-.42-.59-.72-.77-.37-.22-.8-.33-1.24-.31-.54-.01-1.06.18-1.45.55-.41.39-.68.9-.78,1.46h4.45Z"/>
          <path class="cls-13" d="M295.26,63.84c-.54-.34-.97-.82-1.25-1.38-.31-.62-.47-1.3-.46-2-.01-.69.14-1.38.46-1.99.28-.57.71-1.05,1.25-1.39.53-.33,1.14-.51,1.77-.5.53,0,1.04.12,1.5.38.41.22.75.55,1,.94h.06l-.06-1.02v-3.03h1.21v10.26h-1.16v-1.07h-.06c-.25.39-.59.71-1,.94-.46.26-.98.39-1.5.38-.62,0-1.24-.17-1.77-.51ZM298.36,62.91c.38-.24.68-.59.88-.99.22-.46.34-.96.34-1.46s-.12-1.01-.34-1.46c-.2-.4-.51-.73-.89-.97-.36-.23-.77-.35-1.19-.34-.42,0-.83.12-1.19.34-.38.24-.69.58-.9.98-.22.45-.33.95-.33,1.46s.12,1,.33,1.46c.2.4.51.74.9.98.35.22.77.34,1.19.34.42,0,.84-.12,1.2-.34h0Z"/>
          <path class="cls-13" d="M258.27,78.97c-.8-.46-1.46-1.12-1.91-1.93-.45-.84-.69-1.78-.69-2.73s.24-1.89.69-2.73c.45-.8,1.11-1.47,1.91-1.93.82-.47,1.76-.71,2.7-.7.72,0,1.43.14,2.09.43.63.29,1.2.72,1.65,1.25l-.87.84c-.35-.43-.78-.78-1.28-1.03-.5-.23-1.04-.34-1.59-.33-.72,0-1.42.17-2.05.53-.62.35-1.13.86-1.48,1.48-.36.68-.55,1.43-.55,2.2s.19,1.52.55,2.2c.35.62.86,1.13,1.48,1.48.62.35,1.33.53,2.05.52.61,0,1.21-.14,1.76-.4.55-.27,1.03-.65,1.4-1.13l.88.86c-.48.57-1.08,1.03-1.76,1.34-.79.36-1.66.53-2.53.49-.87-.04-1.72-.28-2.48-.7h.02Z"/>
          <path class="cls-13" d="M266.9,69.18h1.76l3.26,8.41h.06l3.26-8.41h1.76v10.26h-1.2v-6.52l.06-1.95h-.06l-3.34,8.47h-1l-3.34-8.47h-.06l.06,1.95v6.52h-1.2v-10.26h0Z"/>
          <path class="cls-13" d="M279.41,69.18h3.44c.55,0,1.1.13,1.59.39.48.25.88.62,1.16,1.08.28.47.43,1.01.43,1.56s-.15,1.09-.43,1.56c-.28.46-.69.83-1.16,1.08-.49.26-1.03.39-1.59.39h-2.25v4.19h-1.2v-10.26h0ZM282.89,74.1c.36,0,.71-.09,1.01-.28.28-.17.51-.41.68-.7.16-.27.24-.59.24-.9s-.08-.63-.24-.9c-.16-.29-.4-.53-.68-.7-.3-.18-.65-.28-1.01-.27h-2.27v3.75h2.27Z"/>
          <path class="cls-13" d="M249.44,84.5h3.44c.55,0,1.1.13,1.59.39.48.25.88.62,1.16,1.08.28.47.43,1.01.43,1.56s-.15,1.09-.43,1.56c-.28.46-.69.83-1.16,1.08-.49.26-1.04.39-1.59.39h-2.25v4.19h-1.2v-10.26.02ZM252.91,89.42c.35,0,.7-.09,1.01-.28.28-.17.51-.41.68-.7.16-.27.24-.59.24-.9s-.08-.63-.24-.9c-.17-.29-.4-.53-.68-.7-.3-.19-.65-.28-1.01-.27h-2.27v3.75h2.27Z"/>
          <path class="cls-13" d="M258.19,94.68c-.4-.19-.74-.49-.97-.87-.23-.38-.35-.81-.34-1.25-.01-.35.06-.7.21-1.02.15-.32.38-.59.66-.8.64-.45,1.41-.68,2.19-.65.41,0,.82.04,1.22.14.3.07.59.18.86.33v-.44c0-.25-.04-.49-.14-.72-.1-.23-.25-.43-.44-.59-.4-.34-.92-.52-1.44-.5-.39,0-.78.09-1.13.27-.33.17-.62.42-.82.74l-.91-.69c.29-.44.7-.8,1.18-1.03.52-.25,1.09-.38,1.66-.37.85-.05,1.69.23,2.34.78.29.27.51.6.66.97s.21.76.19,1.16v4.63h-1.15v-1.05h-.06c-.23.38-.55.69-.94.9-.43.25-.92.38-1.42.37-.49,0-.98-.1-1.43-.31h0ZM260.87,93.61c.35-.21.64-.5.85-.85.21-.35.32-.75.31-1.16-.26-.17-.54-.29-.84-.37-.34-.1-.7-.15-1.06-.15-.54-.04-1.07.11-1.51.42-.16.13-.29.29-.38.48-.09.19-.13.39-.13.6,0,.19.03.37.11.54.08.17.2.32.34.43.33.26.74.39,1.16.37.4,0,.8-.11,1.14-.32Z"/>
          <path class="cls-13" d="M265.01,87.46h1.16v1.16h.06c.17-.42.48-.78.87-1,.41-.24.87-.36,1.34-.36.18,0,.35.01.53.04v1.25c-.22-.04-.44-.06-.66-.06-.28,0-.56.04-.82.15-.26.11-.49.27-.69.47-.4.44-.6,1.02-.58,1.61v4.06h-1.21v-7.31h0ZM272.4,94.74c-.23-.09-.44-.22-.63-.38-.19-.17-.33-.39-.43-.62-.1-.28-.15-.58-.14-.88v-4.29h-1.27v-1.11h1.27v-2.06h1.22v2.06h1.77v1.11h-1.77v3.98c-.03.31.06.63.23.89.1.11.22.19.36.25.14.05.28.08.43.07.29,0,.56-.08.8-.24v1.19c-.14.06-.29.11-.44.14-.19.03-.38.04-.56.04-.28,0-.56-.05-.82-.14h-.01Z"/>
          <path class="cls-13" d="M275.88,87.46h1.16v1.07h.06c.23-.39.56-.72.96-.94.43-.25.91-.38,1.4-.38.37-.03.74.03,1.09.16.35.13.66.34.92.6.49.58.74,1.33.69,2.09v4.69h-1.21v-4.5c0-.68-.16-1.17-.49-1.48-.37-.32-.84-.49-1.33-.46-.38,0-.75.11-1.05.33-.31.22-.56.52-.72.87-.17.35-.26.74-.26,1.12v4.11h-1.21v-7.29Z"/>
          <path class="cls-13" d="M285.41,94.49c-.55-.33-1-.81-1.29-1.38-.31-.62-.47-1.3-.46-1.99-.01-.67.14-1.34.43-1.95.28-.58.71-1.07,1.25-1.42.55-.36,1.2-.54,1.85-.53.65-.02,1.3.15,1.86.48.52.32.94.78,1.21,1.33.29.6.43,1.27.42,1.94,0,.13-.01.25-.04.37h-5.78c.01.49.15.98.4,1.4.22.36.53.66.91.86.35.19.75.29,1.15.28.45,0,.89-.11,1.27-.35s.69-.57.89-.97l1.03.5c-.3.57-.74,1.06-1.28,1.41-.58.33-1.24.51-1.91.51s-1.33-.18-1.91-.51v.02ZM289.39,90.34c-.03-.32-.11-.63-.26-.92-.17-.32-.42-.59-.72-.77-.38-.22-.81-.33-1.25-.31-.54-.01-1.06.19-1.45.55-.41.39-.68.9-.78,1.46h4.46Z"/>
          <path class="cls-13" d="M292.23,87.46h1.16v1.17h.06c.15-.42.45-.77.83-1,.38-.25.83-.39,1.29-.39.29,0,.58.04.86.14v1.32c-.32-.15-.67-.23-1.03-.23-.35,0-.69.11-.97.31-.3.2-.55.48-.71.81-.17.34-.27.72-.26,1.1v4.09h-1.22v-7.31h0Z"/>
        </g>
        <g>
          <rect class="cls-4" x="44.96" y="29.42" width="145.23" height="89.77" rx="7.7" ry="7.7"/>
          <g>
            <path class="cls-10" d="M179.53,39.6H55.62v64.91h123.91V39.6Z"/>
            <path class="cls-3" d="M178.36,53.39H56.67v50.33h121.68v-50.33Z"/>
            <path class="cls-9" d="M159.72,98.41h-84.54v10.61h84.54v-10.61Z"/>
            <path class="cls-9" d="M114.86,60.63v6.89h-.85v-6.89h-1.87v-.81h4.6v.81h-1.87Z"/>
            <path class="cls-9" d="M116.85,62.74h.83v.52c.08-.13.44-.64,1.09-.64.25,0,.53.09.74.2l-.39.75c-.18-.13-.36-.16-.48-.16-.33,0-.54.14-.67.3-.14.18-.28.51-.28,1.29v2.53h-.83v-4.79Z"/>
            <path class="cls-9" d="M123.69,62.74h.83v4.79h-.83v-.67c-.28.36-.8.81-1.64.81-1.21,0-2.33-.85-2.33-2.54s1.11-2.51,2.33-2.51c.92,0,1.42.51,1.64.8v-.68ZM120.57,65.13c0,1.03.58,1.8,1.57,1.8s1.59-.84,1.59-1.79c0-1.24-.85-1.78-1.59-1.78-.82,0-1.57.6-1.57,1.77Z"/>
            <path class="cls-9" d="M126.09,62.74h.83v.55c.15-.2.58-.67,1.37-.67.57,0,1.09.23,1.37.66.24.36.28.75.28,1.28v2.97h-.83v-2.94c0-.29-.02-.62-.22-.88-.16-.21-.42-.35-.79-.35-.29,0-.6.08-.84.37-.32.38-.35.95-.35,1.29v2.51h-.83v-4.79Z"/>
            <path class="cls-9" d="M133.5,63.84c-.12-.28-.36-.48-.67-.48s-.58.17-.58.54c0,.35.23.45.77.68.69.29,1.02.51,1.2.74.21.25.25.51.25.77,0,1-.73,1.57-1.65,1.57-.2,0-1.27-.02-1.67-1.22l.72-.3c.09.25.37.79.97.79.54,0,.79-.4.79-.76,0-.45-.32-.6-.77-.8-.58-.25-.95-.44-1.17-.7-.18-.23-.22-.46-.22-.7,0-.84.59-1.34,1.4-1.34.25,0,.94.05,1.32.87l-.68.36Z"/>
            <path class="cls-9" d="M136.42,70.18h-.83v-7.45h.83v.67c.57-.7,1.29-.79,1.64-.79,1.5,0,2.33,1.25,2.33,2.54s-.84,2.51-2.3,2.51c-.77,0-1.32-.35-1.67-.81v3.33ZM139.54,65.16c0-1.18-.8-1.8-1.57-1.8s-1.59.64-1.59,1.79c0,.98.62,1.78,1.61,1.78s1.56-.81,1.56-1.77Z"/>
            <path class="cls-9" d="M145.33,62.74h.83v4.79h-.83v-.67c-.28.36-.8.81-1.64.81-1.21,0-2.33-.85-2.33-2.54s1.11-2.51,2.33-2.51c.92,0,1.42.51,1.64.8v-.68ZM142.21,65.13c0,1.03.58,1.8,1.57,1.8s1.59-.84,1.59-1.79c0-1.24-.85-1.78-1.59-1.78-.82,0-1.57.6-1.57,1.77Z"/>
            <path class="cls-9" d="M147.73,62.74h.83v.52c.08-.13.44-.64,1.09-.64.25,0,.53.09.74.2l-.39.75c-.18-.13-.36-.16-.48-.16-.33,0-.54.14-.67.3-.14.18-.28.51-.28,1.29v2.53h-.83v-4.79Z"/>
            <path class="cls-9" d="M155.12,66.3c-.14.27-.35.55-.59.77-.44.39-.98.59-1.59.59-1.15,0-2.37-.73-2.37-2.51,0-1.43.88-2.54,2.32-2.54.94,0,1.52.46,1.81.88.3.43.47,1.17.45,1.8h-3.73c.01.99.69,1.63,1.52,1.63.39,0,.7-.12.98-.35.22-.18.39-.43.5-.66l.69.38ZM154.3,64.61c-.14-.75-.7-1.25-1.41-1.25s-1.28.53-1.41,1.25h2.82Z"/>
            <path class="cls-9" d="M156.43,62.74h.83v.55c.15-.2.58-.67,1.37-.67.57,0,1.08.23,1.37.66.24.36.28.75.28,1.28v2.97h-.83v-2.94c0-.29-.02-.62-.22-.88-.16-.21-.42-.35-.79-.35-.29,0-.6.08-.84.37-.32.38-.35.95-.35,1.29v2.51h-.83v-4.79Z"/>
            <path class="cls-9" d="M165.61,64.08c-.44-.55-1.07-.72-1.5-.72-.89,0-1.7.62-1.7,1.79s.83,1.78,1.69,1.78c.5,0,1.11-.22,1.55-.75v.99c-.52.38-1.07.5-1.52.5-1.49,0-2.56-1.06-2.56-2.51s1.09-2.54,2.56-2.54c.76,0,1.26.3,1.49.46v.99Z"/>
            <path class="cls-9" d="M168.42,67.08l-2.2-4.34h.95l1.7,3.43,1.56-3.43h.92l-3.52,7.45h-.92l1.52-3.11Z"/>
            <path class="cls-3" d="M88.52,48.51h-2.13l-.54,1.2h-.82l2.48-5.27,2.36,5.27h-.82l-.52-1.2ZM88.22,47.8l-.74-1.69-.77,1.69h1.51Z"/>
            <path class="cls-3" d="M91.92,44.74c.31,0,.73.03,1.09.27.42.28.62.75.62,1.21,0,.29-.07.74-.48,1.09-.4.34-.85.39-1.22.39h-.34v2.02h-.76v-4.98h1.1ZM91.58,46.99h.34c.66,0,.97-.32.97-.78,0-.28-.11-.77-.98-.77h-.34v1.55Z"/>
            <path class="cls-3" d="M95.83,44.74c.31,0,.73.03,1.09.27.42.28.62.75.62,1.21,0,.29-.07.74-.48,1.09-.4.34-.85.39-1.22.39h-.34v2.02h-.76v-4.98h1.1ZM95.49,46.99h.34c.66,0,.97-.32.97-.78,0-.28-.11-.77-.98-.77h-.34v1.55Z"/>
            <path class="cls-3" d="M99.52,44.74c.6,0,.99.07,1.31.29.54.37.59.95.59,1.17,0,.72-.44,1.24-1.1,1.39l1.55,2.13h-.92l-1.42-2.04h-.13v2.04h-.76v-4.98h.89ZM99.4,47.02h.24c.21,0,1.06-.02,1.06-.81,0-.7-.66-.77-1.04-.77h-.26v1.58Z"/>
            <path class="cls-3" d="M107.89,47.23c0,1.46-1.1,2.58-2.59,2.58s-2.59-1.12-2.59-2.58,1.1-2.58,2.59-2.58,2.59,1.12,2.59,2.58ZM107.13,47.23c0-1.1-.76-1.88-1.83-1.88s-1.83.78-1.83,1.88.76,1.88,1.83,1.88,1.83-.78,1.83-1.88Z"/>
            <path class="cls-3" d="M109.27,44.74l1.39,3.47,1.39-3.47h.82l-2.21,5.3-2.21-5.3h.82Z"/>
            <path class="cls-3" d="M116.57,45.46h-1.98v1.26h1.92v.72h-1.92v1.57h1.98v.72h-2.75v-4.98h2.75v.72Z"/>
            <path class="cls-3" d="M118.93,44.74c.69,0,1.3.07,1.85.48.6.46.95,1.18.95,2.01s-.34,1.54-1,2.01c-.58.41-1.13.48-1.82.48h-1.03v-4.98h1.04ZM118.64,49h.33c.37,0,.89-.03,1.32-.35.34-.26.68-.74.68-1.42s-.31-1.17-.67-1.43c-.43-.31-.96-.34-1.33-.34h-.33v3.54Z"/>
            <path class="cls-3" d="M92.69,101.58c.53,0,.87.07,1.15.25.48.32.52.84.52,1.03,0,.63-.39,1.09-.97,1.22l1.36,1.86h-.8l-1.25-1.79h-.12v1.79h-.67v-4.36h.78ZM92.58,103.58h.21c.18,0,.93-.02.93-.71,0-.61-.58-.67-.91-.67h-.23v1.39Z"/>
            <path class="cls-3" d="M98.06,102.21h-1.74v1.11h1.69v.63h-1.69v1.37h1.74v.63h-2.41v-4.36h2.41v.63Z"/>
            <path class="cls-3" d="M101.44,103.67h1.8v.03c0,.75-.22,1.35-.65,1.77-.45.44-.99.56-1.48.56-.63,0-1.09-.18-1.48-.6-.43-.44-.65-1.02-.65-1.65,0-.68.27-1.27.63-1.63.37-.38.97-.65,1.64-.65.39,0,.8.08,1.14.27.36.2.58.46.71.65l-.53.37c-.13-.18-.33-.38-.54-.5-.24-.14-.5-.19-.77-.19-.57,0-.94.24-1.15.45-.29.29-.46.75-.46,1.22,0,.44.16.88.45,1.18.3.32.67.44,1.09.44.38,0,.69-.11.97-.39.24-.24.34-.49.37-.74h-1.09v-.61Z"/>
            <path class="cls-3" d="M104.99,101.58v4.36h-.67v-4.36h.67Z"/>
            <path class="cls-3" d="M108.18,102.55c-.04-.1-.1-.19-.2-.27-.14-.11-.28-.16-.47-.16-.41,0-.61.24-.61.52,0,.13.05.36.47.53l.44.18c.8.33,1.03.78,1.03,1.28,0,.83-.59,1.4-1.41,1.4-.5,0-.8-.19-1.03-.44-.24-.26-.34-.55-.37-.85l.66-.14c0,.22.08.42.18.56.12.16.31.26.57.26.41,0,.72-.29.72-.73s-.34-.63-.63-.75l-.42-.18c-.36-.15-.89-.45-.89-1.11,0-.59.46-1.15,1.28-1.15.47,0,.74.18.88.29.12.1.24.26.33.44l-.54.31Z"/>
            <path class="cls-3" d="M111,102.21v3.73h-.67v-3.73h-1v-.63h2.67v.63h-1Z"/>
            <path class="cls-3" d="M115.26,102.21h-1.74v1.11h1.69v.63h-1.69v1.37h1.74v.63h-2.41v-4.36h2.41v.63Z"/>
            <path class="cls-3" d="M117.15,101.58c.53,0,.87.07,1.15.25.48.32.52.84.52,1.03,0,.63-.39,1.09-.97,1.22l1.36,1.86h-.8l-1.25-1.79h-.12v1.79h-.67v-4.36h.78ZM117.04,103.58h.21c.18,0,.93-.02.93-.71,0-.61-.58-.67-.91-.67h-.23v1.39Z"/>
            <path class="cls-3" d="M122.53,102.21h-1.74v1.11h1.69v.63h-1.69v1.37h1.74v.63h-2.41v-4.36h2.41v.63Z"/>
            <path class="cls-3" d="M124.56,101.58c.61,0,1.14.07,1.62.42.53.4.84,1.03.84,1.76s-.3,1.35-.88,1.76c-.51.36-.99.42-1.6.42h-.9v-4.36h.92ZM124.31,105.31h.29c.33,0,.78-.03,1.16-.31.3-.23.6-.65.6-1.24s-.27-1.03-.59-1.26c-.38-.27-.84-.3-1.16-.3h-.29v3.11Z"/>
            <path class="cls-3" d="M128.11,45.84c-.04-.11-.11-.22-.22-.31-.16-.13-.32-.18-.54-.18-.46,0-.7.28-.7.6,0,.15.05.41.54.6l.5.2c.92.37,1.17.9,1.17,1.46,0,.95-.67,1.6-1.6,1.6-.57,0-.92-.22-1.17-.5-.27-.3-.39-.63-.42-.97l.75-.16c0,.25.09.48.21.63.14.18.35.3.65.3.46,0,.82-.34.82-.84s-.39-.72-.72-.85l-.48-.2c-.41-.17-1.01-.51-1.01-1.26,0-.67.52-1.31,1.45-1.31.54,0,.84.2,1,.34.13.12.28.29.38.5l-.61.36Z"/>
            <path class="cls-3" d="M131.36,45.46v4.26h-.76v-4.26h-1.14v-.72h3.04v.72h-1.14Z"/>
            <path class="cls-3" d="M136.13,48.51h-2.13l-.54,1.2h-.82l2.48-5.27,2.36,5.27h-.82l-.52-1.2ZM135.83,47.8l-.74-1.69-.77,1.69h1.51Z"/>
            <path class="cls-3" d="M139.51,45.46v4.26h-.76v-4.26h-1.14v-.72h3.04v.72h-1.14Z"/>
            <path class="cls-3" d="M142.41,44.74v3c0,.27,0,.6.16.86.15.25.48.51.92.51s.78-.26.92-.51c.15-.26.16-.59.16-.86v-3h.76v3.2c0,.4-.08.87-.46,1.29-.26.28-.7.58-1.38.58s-1.12-.3-1.38-.58c-.38-.42-.46-.9-.46-1.29v-3.2h.76Z"/>
            <path class="cls-3" d="M149.01,45.84c-.04-.11-.11-.22-.22-.31-.16-.13-.32-.18-.54-.18-.46,0-.7.28-.7.6,0,.15.05.41.54.6l.5.2c.92.37,1.17.9,1.17,1.46,0,.95-.67,1.6-1.6,1.6-.57,0-.92-.22-1.17-.5-.27-.3-.39-.63-.42-.97l.75-.16c0,.25.09.48.21.63.14.18.35.3.65.3.46,0,.82-.34.82-.84s-.39-.72-.72-.85l-.48-.2c-.41-.17-1.01-.51-1.01-1.26,0-.67.52-1.31,1.45-1.31.54,0,.84.2,1,.34.13.12.28.29.38.5l-.61.36Z"/>
            <path class="cls-9" d="M116.43,74.42h.83v4.79h-.83v-.67c-.28.36-.8.81-1.64.81-1.21,0-2.33-.85-2.33-2.54s1.11-2.51,2.33-2.51c.92,0,1.42.51,1.64.8v-.68ZM113.31,76.81c0,1.03.58,1.8,1.57,1.8s1.59-.84,1.59-1.79c0-1.24-.85-1.78-1.59-1.78-.82,0-1.57.6-1.57,1.77Z"/>
            <path class="cls-9" d="M118.83,74.42h.83v.55c.15-.2.58-.67,1.37-.67.57,0,1.09.23,1.37.66.24.36.28.75.28,1.28v2.97h-.83v-2.94c0-.29-.02-.62-.22-.88-.16-.21-.42-.35-.79-.35-.29,0-.6.08-.84.37-.32.38-.35.95-.35,1.29v2.51h-.83v-4.79Z"/>
            <path class="cls-9" d="M127.93,70.79h.83v8.42h-.83v-.67c-.28.36-.8.81-1.64.81-1.21,0-2.33-.85-2.33-2.54s1.11-2.51,2.33-2.51c.92,0,1.42.51,1.64.8v-4.31ZM124.81,76.81c0,1.03.58,1.8,1.57,1.8s1.59-.84,1.59-1.79c0-1.24-.85-1.78-1.59-1.78-.82,0-1.57.6-1.57,1.77Z"/>
            <path class="cls-9" d="M139.12,73.21c-.24-.24-.61-.53-1-.72-.4-.18-.88-.3-1.33-.3-1.78,0-3.09,1.43-3.09,3.21,0,2.09,1.7,3.14,3.11,3.14.52,0,1.03-.15,1.43-.36.44-.22.75-.51.89-.65v1.06c-.85.61-1.74.75-2.32.75-2.29,0-3.98-1.73-3.98-3.96s1.72-4.01,4.03-4.01c.46,0,1.35.06,2.27.76v1.06Z"/>
            <path class="cls-9" d="M140.18,76.83c0-1.45,1.07-2.53,2.54-2.53s2.54,1.07,2.54,2.53-1.09,2.52-2.54,2.52-2.54-1.06-2.54-2.52ZM141.04,76.83c0,1.18.83,1.78,1.69,1.78s1.69-.61,1.69-1.78-.81-1.79-1.69-1.79-1.69.62-1.69,1.79Z"/>
            <path class="cls-9" d="M146.53,74.42h.83v.55c.15-.2.58-.67,1.37-.67.57,0,1.09.23,1.37.66.24.36.28.75.28,1.28v2.97h-.83v-2.94c0-.29-.02-.62-.22-.88-.16-.21-.42-.35-.79-.35-.29,0-.6.08-.84.37-.32.38-.35.95-.35,1.29v2.51h-.83v-4.79Z"/>
            <path class="cls-9" d="M153.93,75.53c-.12-.28-.36-.48-.67-.48s-.58.17-.58.54c0,.35.23.45.77.68.69.29,1.02.51,1.2.74.21.25.25.51.25.77,0,1-.73,1.57-1.65,1.57-.2,0-1.27-.02-1.67-1.22l.72-.3c.09.25.37.79.97.79.54,0,.79-.4.79-.76,0-.45-.32-.6-.77-.8-.58-.25-.95-.44-1.17-.7-.19-.23-.22-.46-.22-.7,0-.84.59-1.34,1.4-1.34.25,0,.93.05,1.32.87l-.68.36Z"/>
            <path class="cls-9" d="M160.27,77.99c-.14.27-.35.55-.59.77-.44.39-.98.59-1.59.59-1.15,0-2.37-.73-2.37-2.51,0-1.43.88-2.54,2.32-2.54.93,0,1.52.46,1.81.88.3.43.47,1.17.45,1.8h-3.73c.01.99.69,1.63,1.52,1.63.39,0,.7-.12.98-.35.22-.18.39-.43.5-.66l.69.38ZM159.45,76.29c-.14-.75-.7-1.25-1.41-1.25s-1.28.53-1.41,1.25h2.82Z"/>
            <path class="cls-9" d="M161.58,74.42h.83v.55c.15-.2.58-.67,1.37-.67.57,0,1.09.23,1.37.66.24.36.28.75.28,1.28v2.97h-.83v-2.94c0-.29-.02-.62-.22-.88-.16-.21-.42-.35-.79-.35-.29,0-.6.08-.84.37-.32.38-.35.95-.35,1.29v2.51h-.83v-4.79Z"/>
            <path class="cls-9" d="M167.86,75.18v4.03h-.83v-4.03h-.51v-.76h.51v-1.73h.83v1.73h.83v.76h-.83Z"/>
            <path class="cls-9" d="M116.48,82.68h-2.66v2.27h2.56v.81h-2.56v3.81h-.85v-7.7h3.51v.81Z"/>
            <path class="cls-9" d="M117.53,84.78h.83v.52c.08-.13.44-.64,1.09-.64.25,0,.53.09.74.2l-.39.75c-.18-.13-.36-.16-.48-.16-.33,0-.54.14-.67.3-.14.18-.28.51-.28,1.29v2.53h-.83v-4.79Z"/>
            <path class="cls-9" d="M124.37,84.78h.83v4.79h-.83v-.67c-.28.36-.8.81-1.64.81-1.21,0-2.33-.85-2.33-2.54s1.11-2.51,2.33-2.51c.92,0,1.42.51,1.64.8v-.68ZM121.26,87.17c0,1.03.58,1.8,1.57,1.8s1.59-.84,1.59-1.79c0-1.24-.85-1.78-1.59-1.78-.82,0-1.57.6-1.57,1.77Z"/>
            <path class="cls-9" d="M126.78,84.78h.83v.51c.27-.39.68-.62,1.19-.62.87,0,1.21.61,1.3.77.46-.73,1.12-.77,1.44-.77,1.42,0,1.56,1.19,1.56,1.87v3.04h-.83v-2.91c0-.54-.07-1.26-.85-1.26-.96,0-1.06.92-1.06,1.5v2.67h-.83v-2.84c0-.33.01-1.33-.87-1.33-.95,0-1.05.98-1.05,1.56v2.61h-.83v-4.79Z"/>
            <path class="cls-9" d="M138.94,88.35c-.14.27-.35.55-.59.77-.44.39-.98.59-1.59.59-1.15,0-2.37-.73-2.37-2.51,0-1.43.88-2.54,2.32-2.54.94,0,1.52.46,1.81.88.3.43.47,1.17.45,1.8h-3.73c.01.99.69,1.63,1.52,1.63.39,0,.7-.12.98-.35.22-.18.39-.43.5-.66l.69.38ZM138.12,86.65c-.14-.75-.7-1.25-1.41-1.25s-1.28.53-1.41,1.25h2.82Z"/>
            <path class="cls-9" d="M140.47,84.78l1.42,3.26,1.5-3.63,1.49,3.63,1.43-3.26h.92l-2.38,5.13-1.48-3.58-1.48,3.58-2.36-5.13h.92Z"/>
            <path class="cls-9" d="M147.81,87.19c0-1.45,1.07-2.53,2.54-2.53s2.54,1.07,2.54,2.53-1.09,2.52-2.54,2.52-2.54-1.06-2.54-2.52ZM148.67,87.19c0,1.18.83,1.78,1.69,1.78s1.69-.61,1.69-1.78-.81-1.79-1.69-1.79-1.69.62-1.69,1.79Z"/>
            <path class="cls-9" d="M154.17,84.78h.83v.52c.08-.13.44-.64,1.09-.64.25,0,.53.09.74.2l-.39.75c-.18-.13-.36-.16-.48-.16-.34,0-.54.14-.67.3-.14.18-.28.51-.28,1.29v2.53h-.83v-4.79Z"/>
            <path class="cls-9" d="M158.41,81.15v5.4l1.75-1.78h1.09l-2.06,2.06,2.42,2.74h-1.09l-1.92-2.18-.21.21v1.97h-.83v-8.42h.83Z"/>
            <path class="cls-9" d="M98.44,87.65c-1.32,0-2.38,1.06-2.38,2.38s1.06,2.38,2.38,2.38,2.38-1.06,2.38-2.38-1.06-2.38-2.38-2.38Z"/>
            <path class="cls-9" d="M66.08,74.12c-1.32,0-2.38,1.06-2.38,2.38s1.06,2.38,2.38,2.38,2.38-1.06,2.38-2.38-1.06-2.38-2.38-2.38Z"/>
            <path class="cls-10" d="M67.93,80.52h-3.66v11.81h3.66v-11.81Z"/>
            <path class="cls-10" d="M88.44,88.77c-1.32,0-2.38-1.06-2.38-2.38s1.06-2.38,2.38-2.38,2.38,1.06,2.38,2.38-1.06,2.38-2.38,2.38ZM93.09,82.24c-1-1.06-2.39-1.73-3.93-1.73-1.14,0-2.21.37-3.1,1.01v-7.74h-3.64v18.54h3.64v-1.03c.88.64,1.96,1.01,3.1,1.01,1.52,0,2.92-.66,3.93-1.73,1-1.06,1.62-2.55,1.62-4.17s-.63-3.1-1.62-4.16Z"/>
            <path class="cls-10" d="M75.18,88.77c-1.32,0-2.38-1.06-2.38-2.38s1.06-2.38,2.38-2.38,2.38,1.06,2.38,2.38-1.06,2.38-2.38,2.38ZM77.57,80.52v1.01c-.88-.64-1.96-1.01-3.11-1.01-1.52,0-2.92.66-3.92,1.73-1,1.06-1.62,2.55-1.62,4.17s.63,3.11,1.62,4.17c1,1.06,2.39,1.73,3.92,1.73,1.14,0,2.21-.37,3.11-1.01v1.03h3.66v-11.81h-3.66v-.02Z"/>
            <path class="cls-10" d="M98.32,62.29c-.67-.11-1.16-.66-1.16-1.32s.47-1.19,1.16-1.32v2.63ZM99.54,59.55c.21.1.45.26.61.47.21.26.32.55.32.91,0,.77-.59,1.41-1.51,1.41v-3.47c-.59-.02-1.28.14-1.69.42-.39.27-.82.82-.82,1.69,0,1.35,1.03,2.17,2.36,2.17,1.65,0,2.33-1.12,2.33-2.2,0-.58-.18-1.08-.55-1.48-.21-.22-.47-.42-.72-.55l-.34.63ZM100.47,66.05c0,.91-.74,1.49-1.65,1.49-1.08,0-1.67-.77-1.67-1.48s.58-1.46,1.69-1.46c.88-.02,1.64.53,1.64,1.44ZM100.41,67.49c.43-.34.75-.83.75-1.56,0-1.35-1.11-2.13-2.33-2.13s-2.36.77-2.36,2.17c0,.32.08,1,.74,1.52h-.64v.77h6.93v-.77h-3.1ZM97.15,71.55c0-.82.58-1.57,1.67-1.57s1.65.77,1.65,1.57-.56,1.57-1.65,1.57-1.67-.75-1.67-1.57ZM101.16,71.55c0-1.35-1-2.36-2.34-2.36s-2.36,1-2.36,2.36.99,2.36,2.36,2.36c1.35.02,2.34-1,2.34-2.36ZM101.04,76.3v-.77h-2.36c-.74,0-1.03-.13-1.2-.26-.14-.11-.27-.3-.27-.63,0-.11.03-.27.14-.45l-.71-.37c-.1.19-.18.45-.18.69,0,.61.47.93.59,1.01h-.48v.77h4.46ZM96.57,80.28v.77h2.7c.55,0,.96-.05,1.35-.4.42-.4.56-.93.56-1.36s-.14-.96-.56-1.36c-.39-.35-.8-.4-1.35-.4h-2.7v.77h2.6c.3,0,.67,0,.96.21.14.11.34.35.34.79s-.19.67-.34.79c-.27.21-.64.21-.96.21h-2.6ZM98.32,85.4c-.67-.11-1.16-.66-1.16-1.32s.47-1.19,1.16-1.32v2.63ZM99.54,82.67c.21.1.45.26.61.47.21.26.32.55.32.91,0,.77-.59,1.41-1.51,1.41v-3.47c-.59-.02-1.28.14-1.69.42-.39.27-.82.82-.82,1.69,0,1.35,1.03,2.17,2.36,2.17,1.65,0,2.33-1.12,2.33-2.2,0-.58-.18-1.08-.55-1.48-.21-.22-.47-.42-.72-.55l-.34.63Z"/>
            <path class="cls-3" d="M133.88,102.6c-.48-.44-.94-.48-1.18-.48-.95,0-1.59.7-1.59,1.66s.67,1.63,1.6,1.63c.52,0,.93-.27,1.18-.5v.79c-.44.26-.9.33-1.2.33-.79,0-1.29-.36-1.54-.6-.51-.48-.7-1.03-.7-1.65,0-.8.33-1.36.7-1.71.45-.42.97-.57,1.58-.57.4,0,.78.07,1.16.31v.78Z"/>
            <path class="cls-3" d="M134.82,105.94l.92-4.69,1.52,3.39,1.53-3.39.82,4.69h-.68l-.44-2.63-1.27,2.83-1.26-2.84-.46,2.64h-.68Z"/>
            <path class="cls-3" d="M141.74,101.58c.27,0,.64.03.95.24.37.24.54.66.54,1.06,0,.26-.07.65-.43.95-.35.29-.75.34-1.07.34h-.3v1.77h-.67v-4.36h.96ZM141.45,103.55h.3c.58,0,.85-.28.85-.69,0-.24-.1-.67-.86-.67h-.29v1.36Z"/>
          </g>
          <path class="cls-1" d="M182.49,119.7H52.66c-4.52,0-8.2-3.68-8.2-8.2V37.12c0-4.52,3.68-8.2,8.2-8.2h129.83c4.52,0,8.2,3.68,8.2,8.2v74.38c0,4.52-3.68,8.2-8.2,8.2ZM52.66,29.92c-3.97,0-7.2,3.23-7.2,7.2v74.38c0,3.97,3.23,7.2,7.2,7.2h129.83c3.97,0,7.2-3.23,7.2-7.2V37.12c0-3.97-3.23-7.2-7.2-7.2H52.66Z"/>
        </g>
      </g>
    </g>
  </g>
</svg>